<svg width="100" height="100" viewBox="0 0 100 100" fill="none" xmlns="http://www.w3.org/2000/svg">
<rect x="34" y="34" width="36" height="39" fill="#263238"/>
<path fill-rule="evenodd" clip-rule="evenodd" d="M51.0629 71.5821C49.3379 71.5821 47.9213 70.1821 47.9213 68.4571C47.9213 66.7321 49.3004 65.3321 51.0254 65.3321H51.0629C52.7879 65.3321 54.1879 66.7321 54.1879 68.4571C54.1879 70.1821 52.7879 71.5821 51.0629 71.5821ZM47.9171 37.6445C47.9171 35.9195 49.3171 34.5195 51.0421 34.5195C52.7671 34.5195 54.1671 35.9195 54.1671 37.6445V53.8738C54.1671 55.5988 52.7671 56.9988 51.0421 56.9988C49.3171 56.9988 47.9171 55.5988 47.9171 53.8738V37.6445ZM80.4588 44.5529L79.5754 42.9946C67.1338 20.8695 59.4004 12.6445 51.0421 12.6445C42.6838 12.6445 34.9503 20.8695 22.5087 42.9946L21.6295 44.5529C17.1587 52.3946 7.867 68.7071 9.592 78.4404C11.6253 89.9529 23.4795 91.8113 51.0421 91.8113C78.6088 91.8113 90.4629 89.9529 92.4921 78.4404C94.2171 68.7071 84.9254 52.3946 80.4588 44.5529Z" fill="#BDD634"/>
</svg>
