<svg width="13" height="13" viewBox="0 0 13 13" fill="none" xmlns="http://www.w3.org/2000/svg">
<path d="M3.24992 7.85415V7.31248C3.24992 7.24065 3.27845 7.17176 3.32924 7.12097C3.38004 7.07018 3.44892 7.04165 3.52075 7.04165H4.06242C4.13425 7.04165 4.20314 7.07018 4.25393 7.12097C4.30472 7.17176 4.33325 7.24065 4.33325 7.31248V7.85415C4.33325 7.92598 4.30472 7.99486 4.25393 8.04565C4.20314 8.09645 4.13425 8.12498 4.06242 8.12498H3.52075C3.44892 8.12498 3.38004 8.09645 3.32924 8.04565C3.27845 7.99486 3.24992 7.92598 3.24992 7.85415ZM1.08325 9.74998V4.33331C1.08325 3.1384 2.055 2.16665 3.24992 2.16665H3.79159V1.62498C3.79159 1.48132 3.84865 1.34355 3.95024 1.24196C4.05182 1.14038 4.18959 1.08331 4.33325 1.08331C4.47691 1.08331 4.61469 1.14038 4.71627 1.24196C4.81785 1.34355 4.87492 1.48132 4.87492 1.62498V2.16665H8.12492V1.62498C8.12492 1.48132 8.18199 1.34355 8.28357 1.24196C8.38515 1.14038 8.52293 1.08331 8.66659 1.08331C8.81024 1.08331 8.94802 1.14038 9.0496 1.24196C9.15118 1.34355 9.20825 1.48132 9.20825 1.62498V2.16665H9.74992C10.9448 2.16665 11.9166 3.1384 11.9166 4.33331V9.74998C11.9166 10.9449 10.9448 11.9166 9.74992 11.9166H3.24992C2.055 11.9166 1.08325 10.9449 1.08325 9.74998ZM2.16659 9.74998C2.16659 10.3474 2.65246 10.8333 3.24992 10.8333H9.74992C10.3474 10.8333 10.8333 10.3474 10.8333 9.74998V5.95831H2.16659V9.74998Z" fill="#BDD634"/>
</svg>
