<svg width="13" height="13" viewBox="0 0 13 13" fill="none" xmlns="http://www.w3.org/2000/svg">
<path d="M6.49992 1.08337C5.4286 1.08337 4.38135 1.40106 3.49058 1.99625C2.59982 2.59144 1.90555 3.4374 1.49557 4.42717C1.0856 5.41694 0.978331 6.50605 1.18733 7.55678C1.39634 8.60751 1.91222 9.57267 2.66976 10.3302C3.42729 11.0877 4.39245 11.6036 5.44318 11.8126C6.49391 12.0216 7.58302 11.9144 8.57279 11.5044C9.56255 11.0944 10.4085 10.4001 11.0037 9.50938C11.5989 8.61861 11.9166 7.57135 11.9166 6.50004C11.9148 5.06399 11.3436 3.68727 10.3281 2.67183C9.31269 1.65639 7.93597 1.08514 6.49992 1.08337ZM8.95909 3.52629C9.03813 3.52632 9.11611 3.54455 9.18697 3.57959C9.25783 3.61462 9.31967 3.66551 9.36769 3.7283C9.4157 3.79109 9.44861 3.8641 9.46385 3.94167C9.47909 4.01923 9.47625 4.09926 9.45556 4.17556C9.43487 4.25185 9.39688 4.32235 9.34455 4.38159C9.29221 4.44082 9.22692 4.48721 9.15376 4.51714C9.0806 4.54707 9.00153 4.55975 8.92268 4.55418C8.84382 4.54861 8.76732 4.52495 8.69909 4.48504L7.12825 6.05407C7.07879 5.98293 7.01703 5.92117 6.94589 5.87171L8.51492 4.30087C8.47007 4.22254 8.44648 4.13384 8.44651 4.04358C8.44654 3.95331 8.47018 3.86463 8.51508 3.78632C8.55998 3.70802 8.62458 3.64283 8.70247 3.59721C8.78036 3.55159 8.86883 3.52714 8.95909 3.52629ZM6.23811 6.94601C6.12031 6.87705 6.03473 6.76413 6.00019 6.63207C5.98309 6.56668 5.97904 6.49857 5.98826 6.43161C5.99748 6.36466 6.0198 6.30017 6.05395 6.24184C6.08809 6.18352 6.13339 6.13248 6.18726 6.09166C6.24112 6.05084 6.3025 6.02102 6.36789 6.00392C6.49995 5.96939 6.64031 5.98872 6.75811 6.05768C6.87591 6.12663 6.9615 6.23956 6.99604 6.37162C7.03057 6.50368 7.01124 6.64404 6.94228 6.76184C6.87332 6.87964 6.7604 6.96523 6.62834 6.99976C6.49628 7.0343 6.35591 7.01497 6.23811 6.94601ZM2.88881 6.50184C2.86173 3.68337 6.09548 1.91393 8.4445 3.4649C8.37944 3.52231 8.32503 3.59077 8.28381 3.66712C6.10089 2.25337 3.12173 3.89462 3.147 6.50184C3.14447 7.13401 3.32304 7.75367 3.66159 8.28754C3.58547 8.32912 3.51706 8.38347 3.45936 8.44823C3.08455 7.86845 2.88632 7.19223 2.88881 6.50184ZM4.03714 9.4774C3.9581 9.47737 3.88012 9.45914 3.80926 9.4241C3.73839 9.38907 3.67656 9.33818 3.62854 9.27539C3.58053 9.2126 3.54762 9.13959 3.53238 9.06202C3.51714 8.98446 3.51998 8.90442 3.54067 8.82813C3.56136 8.75184 3.59934 8.68134 3.65168 8.6221C3.70402 8.56286 3.7693 8.51648 3.84246 8.48655C3.91563 8.45662 3.9947 8.44394 4.07355 8.44951C4.1524 8.45508 4.22891 8.47874 4.29714 8.51865L5.86798 6.94962C5.91745 7.02076 5.9792 7.08251 6.05034 7.13198L4.48131 8.70282C4.52616 8.78115 4.54974 8.86985 4.54972 8.96011C4.54969 9.05037 4.52605 9.13906 4.48115 9.21736C4.43625 9.29567 4.37165 9.36086 4.29376 9.40648C4.21587 9.4521 4.1274 9.47654 4.03714 9.4774ZM6.49811 10.1111C5.80744 10.1139 5.13098 9.91496 4.55173 9.53879C4.61634 9.48165 4.67069 9.41386 4.71242 9.33837C5.24619 9.67715 5.86592 9.85573 6.49811 9.85295C7.38669 9.85233 8.2387 9.49907 8.86702 8.87075C9.49534 8.24243 9.8486 7.39042 9.84922 6.50184C9.85173 5.86943 9.67249 5.24962 9.33284 4.71615C9.40951 4.67461 9.47851 4.62026 9.53686 4.55546C11.0842 6.90448 9.31659 10.1382 6.49811 10.1111Z" fill="#BDD634"/>
</svg>
