<svg width="300" height="300" viewBox="0 0 300 300" fill="none" xmlns="http://www.w3.org/2000/svg">
<g clip-path="url(#clip0_81_477)">
<path d="M320 252.632H-20V252.802H320V252.632Z" fill="#EBEBEB"/>
<path d="M285.932 263.573H263.411V263.743H285.932V263.573Z" fill="#EBEBEB"/>
<path d="M205.229 265.423H199.32V265.593H205.229V265.423Z" fill="#EBEBEB"/>
<path d="M262.73 257.263H249.681V257.433H262.73V257.263Z" fill="#EBEBEB"/>
<path d="M45.0421 258.405H15.6729V258.575H45.0421V258.405Z" fill="#EBEBEB"/>
<path d="M55.4055 258.405H51.1011V258.575H55.4055V258.405Z" fill="#EBEBEB"/>
<path d="M133.102 261.275H69.3994V261.445H133.102V261.275Z" fill="#EBEBEB"/>
<path d="M141.16 222.304H9.85891C8.83031 222.302 7.84445 221.892 7.11775 221.164C6.39106 220.436 5.98291 219.45 5.98291 218.421V33.8488C5.99186 32.8261 6.40396 31.8482 7.12969 31.1276C7.85542 30.407 8.83617 30.0018 9.85891 30H141.16C142.19 30 143.178 30.4091 143.906 31.1372C144.634 31.8654 145.043 32.853 145.043 33.8828V218.421C145.043 219.451 144.634 220.439 143.906 221.167C143.178 221.895 142.19 222.304 141.16 222.304ZM9.85891 30.136C8.87539 30.1378 7.93278 30.5298 7.23796 31.2259C6.54314 31.9219 6.15291 32.8653 6.15291 33.8488V218.421C6.15291 219.405 6.54314 220.348 7.23796 221.044C7.93278 221.74 8.87539 222.132 9.85891 222.134H141.16C142.144 222.132 143.088 221.74 143.783 221.045C144.479 220.349 144.871 219.405 144.873 218.421V33.8488C144.871 32.8647 144.479 31.9213 143.783 31.2254C143.088 30.5295 142.144 30.1378 141.16 30.136H9.85891Z" fill="#BDD634"/>
<path d="M288.25 222.304H156.942C155.913 222.302 154.927 221.893 154.199 221.165C153.471 220.437 153.061 219.45 153.06 218.421V33.8488C153.07 32.8255 153.484 31.8476 154.211 31.1272C154.938 30.4067 155.919 30.0017 156.942 30H288.25C289.272 30.0035 290.251 30.4095 290.975 31.13C291.699 31.8504 292.111 32.8273 292.12 33.8488V218.421C292.12 219.449 291.712 220.434 290.987 221.162C290.262 221.89 289.278 222.3 288.25 222.304ZM156.942 30.136C155.958 30.1378 155.015 30.5295 154.319 31.2254C153.623 31.9213 153.231 32.8647 153.23 33.8488V218.421C153.231 219.405 153.623 220.349 154.319 221.045C155.015 221.74 155.958 222.132 156.942 222.134H288.25C289.235 222.132 290.178 221.74 290.874 221.045C291.57 220.349 291.961 219.405 291.963 218.421V33.8488C291.961 32.8647 291.57 31.9213 290.874 31.2254C290.178 30.5295 289.235 30.1378 288.25 30.136H156.942Z" fill="#BDD634"/>
<path d="M105.256 72.84C105.253 71.9043 105.469 70.981 105.888 70.1442C106.306 69.3075 106.916 68.5807 107.666 68.0224C108.417 67.4641 109.289 67.0898 110.21 66.9298C111.132 66.7697 112.079 66.8283 112.974 67.1008C112.681 65.1008 112.869 63.0597 113.524 61.1473C114.178 59.2348 115.28 57.5063 116.737 56.1056C118.195 54.7048 119.965 53.6723 121.902 53.0938C123.839 52.5154 125.886 52.4078 127.873 52.78C129.124 50.7233 131.011 49.1294 133.247 48.2387C135.484 47.348 137.949 47.2088 140.272 47.842C142.595 48.4753 144.649 49.8467 146.124 51.7493C147.599 53.652 148.415 55.9827 148.45 58.39H148.64C151.352 58.39 153.954 59.4675 155.872 61.3854C157.79 63.3034 158.867 65.9047 158.867 68.6172C158.867 71.3296 157.79 73.9309 155.872 75.8489C153.954 77.7669 151.352 78.8444 148.64 78.8444H111.084C109.521 78.8018 108.037 78.15 106.948 77.0282C105.859 75.9063 105.252 74.4033 105.256 72.84Z" fill="#DBDBDB"/>
<path d="M167.537 110.689C167.537 109.673 167.941 108.7 168.658 107.982C169.376 107.264 170.35 106.86 171.366 106.86C171.736 106.862 172.105 106.917 172.46 107.024C172.406 106.634 172.378 106.241 172.379 105.847C172.379 103.697 173.233 101.636 174.753 100.116C176.273 98.5956 178.335 97.7416 180.484 97.7416C180.984 97.7418 181.482 97.7873 181.974 97.8776C182.774 96.5662 183.98 95.5503 185.408 94.9829C186.836 94.4155 188.409 94.3273 189.892 94.7315C191.375 95.1357 192.686 96.0104 193.628 97.2241C194.571 98.4378 195.093 99.9247 195.118 101.461H195.234C196.929 101.516 198.537 102.228 199.718 103.447C200.898 104.666 201.558 106.296 201.558 107.993C201.558 109.689 200.898 111.319 199.718 112.538C198.537 113.757 196.929 114.469 195.234 114.524H171.257C170.258 114.499 169.309 114.083 168.613 113.366C167.918 112.649 167.532 111.688 167.537 110.689Z" fill="#DBDBDB"/>
<path d="M26.4582 105.677C26.4573 105.369 26.5173 105.063 26.6349 104.778C26.7525 104.493 26.9253 104.234 27.1433 104.016C27.3613 103.798 27.6203 103.626 27.9053 103.508C28.1904 103.39 28.4958 103.33 28.8042 103.331C29.0347 103.33 29.2641 103.364 29.4842 103.433C29.4489 103.195 29.4307 102.954 29.4298 102.712C29.4289 102.06 29.5566 101.414 29.8057 100.811C30.0547 100.208 30.4203 99.6596 30.8813 99.1979C31.3423 98.7362 31.8899 98.37 32.4926 98.1201C33.0953 97.8702 33.7413 97.7416 34.3938 97.7416C34.7018 97.7434 35.0091 97.773 35.3118 97.83C35.8031 97.0279 36.5417 96.4072 37.4165 96.0614C38.2912 95.7156 39.2546 95.6635 40.1615 95.9129C41.0685 96.1622 41.8698 96.6996 42.4448 97.444C43.0197 98.1884 43.3372 99.0995 43.3494 100.04H43.4242C44.457 100.083 45.4333 100.523 46.149 101.269C46.8647 102.014 47.2644 103.008 47.2644 104.042C47.2644 105.075 46.8647 106.069 46.149 106.815C45.4333 107.561 44.457 108.001 43.4242 108.044H28.7362C28.1217 108.028 27.5383 107.77 27.112 107.327C26.6857 106.885 26.4508 106.292 26.4582 105.677Z" fill="#F0F0F0"/>
<path d="M255.128 71.174C255.126 70.5571 255.368 69.9645 255.801 69.5251C256.234 69.0857 256.823 68.8352 257.44 68.828C257.67 68.827 257.899 68.859 258.12 68.9232C258.088 68.6979 258.072 68.4707 258.072 68.2432C258.062 67.5072 258.215 66.7781 258.522 66.1092C258.829 65.4402 259.282 64.8482 259.847 64.3764C260.412 63.9046 261.075 63.565 261.788 63.3822C262.501 63.1994 263.246 63.1782 263.968 63.32C264.456 62.5125 265.194 61.886 266.07 61.5357C266.946 61.1853 267.913 61.1301 268.823 61.3784C269.733 61.6267 270.538 62.1651 271.114 62.9118C271.691 63.6585 272.009 64.5729 272.019 65.5164H272.094C273.127 65.559 274.103 65.9992 274.819 66.745C275.534 67.4909 275.934 68.4845 275.934 69.5182C275.934 70.5519 275.534 71.5455 274.819 72.2914C274.103 73.0372 273.127 73.4774 272.094 73.52H257.44C256.823 73.5128 256.234 73.2623 255.801 72.8229C255.368 72.3835 255.126 71.7909 255.128 71.174Z" fill="#DBDBDB"/>
<path d="M220.522 69.2565H211.879C211.879 69.2565 212.559 74.2001 219.23 75.6145L220.522 69.2565Z" fill="#BDD634"/>
<path d="M220.522 82.36H211.879C211.879 82.36 212.559 87.3104 219.23 88.7248L220.522 82.36Z" fill="#BDD634"/>
<path d="M220.522 95.5181H211.879C211.879 95.5181 212.559 100.468 219.23 101.883L220.522 95.5181Z" fill="#BDD634"/>
<path opacity="0.1" d="M220.522 69.2565H211.879C211.879 69.2565 212.559 74.2001 219.23 75.6145L220.522 69.2565Z" fill="#BDD634"/>
<path opacity="0.1" d="M220.522 82.36H211.879C211.879 82.36 212.559 87.3104 219.23 88.7248L220.522 82.36Z" fill="#BDD634"/>
<path opacity="0.1" d="M220.522 95.5181H211.879C211.879 95.5181 212.559 100.468 219.23 101.883L220.522 95.5181Z" fill="#BDD634"/>
<path d="M236.557 64.3401H220.475C218.995 64.3401 217.796 65.5396 217.796 67.0193V109.37C217.796 110.849 218.995 112.049 220.475 112.049H236.557C238.037 112.049 239.236 110.849 239.236 109.37V67.0193C239.236 65.5396 238.037 64.3401 236.557 64.3401Z" fill="#BDD634"/>
<path d="M236.557 64.3401H229.587C228.108 64.3401 226.908 65.5396 226.908 67.0193V109.37C226.908 110.849 228.108 112.049 229.587 112.049H236.557C238.037 112.049 239.237 110.849 239.237 109.37V67.0193C239.237 65.5396 238.037 64.3401 236.557 64.3401Z" fill="#E1E1E1"/>
<path d="M237.897 119.522H235.857C234.74 119.522 233.67 119.078 232.88 118.289C232.091 117.5 231.647 116.429 231.647 115.313V63.9999C231.649 62.8841 232.093 61.8145 232.882 61.0255C233.671 60.2366 234.741 59.7925 235.857 59.7907H237.897V63.1907H235.857C235.642 63.1907 235.436 63.276 235.284 63.4277C235.133 63.5795 235.047 63.7853 235.047 63.9999V115.313C235.047 115.527 235.133 115.733 235.284 115.885C235.436 116.037 235.642 116.122 235.857 116.122H237.897V119.522Z" fill="#BDD634"/>
<path d="M230.091 247.212C230.23 247.023 230.413 246.868 230.623 246.762C230.833 246.656 231.065 246.6 231.301 246.6H244.52C244.756 246.6 244.988 246.656 245.198 246.762C245.409 246.868 245.591 247.023 245.731 247.212L250.395 253.57H225.426L230.091 247.212Z" fill="#BDD634"/>
<path d="M236.027 58.7095C236.056 58.2322 236.266 57.7838 236.614 57.456C236.962 57.1282 237.422 56.9456 237.9 56.9456C238.378 56.9456 238.839 57.1282 239.187 57.456C239.535 57.7838 239.745 58.2322 239.774 58.7095C239.781 58.8 239.781 58.891 239.774 58.9815V246.6H236.027V58.9815C236.04 58.8931 236.027 58.8047 236.027 58.7095Z" fill="#BDD634"/>
<path d="M240.705 122.398H237.897V118.998H240.705C240.722 118.998 240.737 118.992 240.749 118.981C240.76 118.969 240.767 118.953 240.767 118.937V78.0828C240.767 78.0666 240.76 78.051 240.749 78.0396C240.737 78.0281 240.722 78.0216 240.705 78.0216H237.897V74.6216H240.705C241.623 74.6234 242.502 74.9887 243.151 75.6374C243.8 76.2861 244.165 77.1654 244.167 78.0828V118.937C244.167 119.855 243.802 120.736 243.153 121.385C242.504 122.034 241.623 122.398 240.705 122.398Z" fill="#BDD634"/>
<path d="M249.96 81.4963H233.341C231.861 81.4963 230.662 82.6959 230.662 84.1755V113.66C230.662 115.14 231.861 116.34 233.341 116.34H249.96C251.44 116.34 252.639 115.14 252.639 113.66V84.1755C252.639 82.6959 251.44 81.4963 249.96 81.4963Z" fill="#263238"/>
<path d="M249.96 81.4963H233.341C231.861 81.4963 230.662 82.6959 230.662 84.1755V113.66C230.662 115.14 231.861 116.34 233.341 116.34H249.96C251.44 116.34 252.639 115.14 252.639 113.66V84.1755C252.639 82.6959 251.44 81.4963 249.96 81.4963Z" fill="#DBCDCD"/>
<path d="M249.96 81.4963H236.02C234.54 81.4963 233.341 82.6959 233.341 84.1755V113.66C233.341 115.14 234.54 116.34 236.02 116.34H249.96C251.44 116.34 252.639 115.14 252.639 113.66V84.1755C252.639 82.6959 251.44 81.4963 249.96 81.4963Z" fill="#F5F5F5"/>
<path d="M248.599 94.1287C249.379 90.8245 247.333 87.5137 244.029 86.7338C240.724 85.954 237.414 88.0004 236.634 91.3046C235.854 94.6088 237.9 97.9196 241.205 98.6995C244.509 99.4794 247.82 97.433 248.599 94.1287Z" fill="#BDD634"/>
<path d="M248.777 106.915C248.77 108.124 248.405 109.304 247.729 110.306C247.052 111.308 246.094 112.087 244.975 112.545C243.856 113.003 242.627 113.119 241.442 112.879C240.257 112.639 239.17 112.054 238.317 111.196C237.465 110.339 236.885 109.249 236.652 108.062C236.418 106.876 236.542 105.647 237.006 104.531C237.47 103.415 238.254 102.461 239.26 101.79C240.266 101.119 241.448 100.761 242.657 100.761C243.463 100.761 244.262 100.92 245.006 101.23C245.751 101.54 246.427 101.993 246.996 102.565C247.565 103.137 248.015 103.816 248.32 104.562C248.626 105.309 248.781 106.108 248.777 106.915Z" fill="#EBEBEB"/>
<path d="M272.882 244.316C272.882 244.316 279.002 237.665 275.385 233.81C271.767 229.954 268.993 235.666 268.993 235.666C268.993 235.666 273.664 227.322 268.993 224.664C264.321 222.005 263.056 228.744 263.056 228.744C263.056 228.744 264.26 219.965 258.004 219.482C251.748 218.999 253.033 226.241 253.033 226.241C253.033 226.241 249.32 219.237 244.458 222.161C239.596 225.085 243.697 231.314 243.697 231.314C243.697 231.314 239.365 226.731 236.897 230.056C234.428 233.381 238.365 236.373 238.365 236.373C238.365 236.373 233.68 234.877 232.98 239.229C232.279 243.581 236.679 244.288 236.679 244.288L272.882 244.316Z" fill="#BDD634"/>
<path d="M89.2217 244.315C89.2217 244.315 98.5989 234.17 93.0365 228.288C87.4741 222.406 83.2853 231.117 83.2853 231.117C83.2853 231.117 90.4117 218.38 83.2853 214.321C76.1589 210.261 74.2277 220.577 74.2277 220.577C74.2277 220.577 76.0637 207.174 66.5097 206.446C56.9557 205.719 58.9345 216.748 58.9345 216.748C58.9345 216.748 53.2633 206.065 45.8445 210.553C38.4257 215.041 44.6749 224.521 44.6749 224.521C44.6749 224.521 38.0721 217.523 34.3117 222.596C30.5513 227.669 36.5625 232.239 36.5625 232.239C36.5625 232.239 29.4089 229.954 28.3345 236.597C27.2601 243.241 33.9853 244.315 33.9853 244.315H89.2217Z" fill="#F0F0F0"/>
<path d="M287.197 244.316H12.8032V252.632H287.197V244.316Z" fill="#F5F5F5"/>
<path d="M287.197 244.316H255.128V252.632H287.197V244.316Z" fill="#BDD634"/>
<path d="M223.053 244.316H190.984V252.632H223.053V244.316Z" fill="#BDD634"/>
<path d="M158.908 244.316H126.839V252.632H158.908V244.316Z" fill="#BDD634"/>
<path d="M94.7641 244.316H62.6953V252.632H94.7641V244.316Z" fill="#BDD634"/>
<path d="M30.6192 244.316H12.8032V252.632H30.6192V244.316Z" fill="#BDD634"/>
<path d="M151.156 214.457H147.26L139.297 191.527H143.193L151.156 214.457Z" fill="#E6E6E6"/>
<path d="M203.081 214.457H199.184L191.222 191.527H195.118L203.081 214.457Z" fill="#E6E6E6"/>
<path d="M228.091 214.457H143.71V220.08H228.091V214.457Z" fill="#F0F0F0"/>
<path d="M212.948 206.671H137.658V212.294H212.948V206.671Z" fill="#F0F0F0"/>
<path d="M206.454 195.417H131.164V201.04H206.454V195.417Z" fill="#F0F0F0"/>
<path d="M202.129 185.897H126.839V191.52H202.129V185.897Z" fill="#F0F0F0"/>
<path d="M224.63 220.087H220.734V244.316H224.63V220.087Z" fill="#F0F0F0"/>
<path d="M224.63 220.087H220.734V224.847H224.63V220.087Z" fill="#E6E6E6"/>
<path d="M148.476 220.087H144.58V244.316H148.476V220.087Z" fill="#F0F0F0"/>
<path d="M148.476 220.087H144.58V224.847H148.476V220.087Z" fill="#E6E6E6"/>
<path d="M149.999 283.341C222.816 283.341 281.845 279.894 281.845 275.643C281.845 271.392 222.816 267.946 149.999 267.946C77.1834 267.946 18.1543 271.392 18.1543 275.643C18.1543 279.894 77.1834 283.341 149.999 283.341Z" fill="#E0E0E0"/>
<path d="M138.168 62.5583H37.4328C33.5271 62.5583 30.3608 65.7246 30.3608 69.6304V262.111C30.3608 266.017 33.5271 269.183 37.4328 269.183H138.168C142.074 269.183 145.24 266.017 145.24 262.111V69.6304C145.24 65.7246 142.074 62.5583 138.168 62.5583Z" fill="#263238"/>
<path opacity="0.2" d="M138.168 62.5583H37.4328C33.5271 62.5583 30.3608 65.7246 30.3608 69.6304V262.111C30.3608 266.017 33.5271 269.183 37.4328 269.183H138.168C142.074 269.183 145.24 266.017 145.24 262.111V69.6304C145.24 65.7246 142.074 62.5583 138.168 62.5583Z" fill="white"/>
<path d="M141.357 69.4807V261.88C141.357 262.253 141.282 262.622 141.138 262.967C140.994 263.311 140.783 263.623 140.518 263.885C140.252 264.147 139.937 264.354 139.59 264.493C139.244 264.632 138.874 264.701 138.501 264.695H36.7861C36.4473 264.699 36.1113 264.634 35.7979 264.505C35.4846 264.376 35.2005 264.186 34.9625 263.944C34.7245 263.703 34.5376 263.417 34.4128 263.102C34.288 262.787 34.2279 262.45 34.2361 262.111V69.2495C34.2243 68.9495 34.2721 68.6502 34.3767 68.3688C34.4813 68.0874 34.6406 67.8295 34.8455 67.6101C35.0504 67.3907 35.2967 67.2141 35.5703 67.0904C35.8439 66.9668 36.1393 66.8986 36.4393 66.8899H61.8713C62.226 66.897 62.5705 67.0094 62.8611 67.2128C63.1517 67.4162 63.3753 67.7015 63.5033 68.0323L64.5573 70.6231C64.6869 70.9537 64.9119 71.2382 65.2038 71.4405C65.4957 71.6427 65.8411 71.7535 66.1961 71.7587H109.471C109.824 71.7551 110.168 71.6473 110.459 71.4489C110.751 71.2505 110.977 70.9703 111.11 70.6435L112.157 68.0391C112.287 67.7075 112.512 67.4216 112.803 67.2172C113.095 67.0127 113.44 66.8989 113.796 66.8899H138.861C139.534 66.9077 140.173 67.1894 140.639 67.6741C141.106 68.1588 141.364 68.8077 141.357 69.4807Z" fill="#BDD634"/>
<path opacity="0.7" d="M141.357 78.9123H34.2363V251.802H141.357V78.9123Z" fill="white"/>
<path opacity="0.6" d="M46.0344 74.6418H47.3604V72.8806H46.0344V74.6418Z" fill="white"/>
<path opacity="0.6" d="M43.8791 74.6418H45.2051V72.289H43.8791V74.6418Z" fill="white"/>
<path opacity="0.6" d="M41.7233 74.6418H43.0493V71.7042H41.7233V74.6418Z" fill="white"/>
<path opacity="0.6" d="M39.568 74.6418H40.894V71.1126H39.568V74.6418Z" fill="white"/>
<path opacity="0.6" d="M129.232 72.2346H128.45V73.9958H129.232V72.2346Z" fill="white"/>
<path opacity="0.6" d="M129.769 74.6418H136.019V71.5886H129.769V74.6418Z" fill="white"/>
<path opacity="0.6" d="M87.7803 67.1415C87.7816 67.4339 87.6961 67.7201 87.5344 67.9638C87.3728 68.2075 87.1424 68.3977 86.8725 68.5102C86.6026 68.6228 86.3054 68.6526 86.0185 68.5958C85.7316 68.5391 85.4681 68.3985 85.2613 68.1917C85.0545 67.9849 84.9138 67.7213 84.8571 67.4345C84.8004 67.1476 84.8302 66.8504 84.9427 66.5804C85.0553 66.3105 85.2454 66.0802 85.4891 65.9185C85.7328 65.7569 86.0191 65.6713 86.3115 65.6727C86.701 65.6727 87.0746 65.8274 87.3501 66.1029C87.6255 66.3783 87.7803 66.7519 87.7803 67.1415Z" fill="white"/>
<path opacity="0.6" d="M90.7512 67.1415C90.7512 67.3287 90.6956 67.5118 90.5915 67.6673C90.4873 67.8229 90.3393 67.9441 90.1662 68.0154C89.9931 68.0867 89.8027 68.105 89.6191 68.068C89.4356 68.031 89.2672 67.9403 89.1353 67.8074C89.0034 67.6746 88.9139 67.5055 88.8782 67.3217C88.8425 67.1379 88.8622 66.9477 88.9348 66.7751C89.0073 66.6025 89.1296 66.4553 89.2859 66.3523C89.4422 66.2493 89.6256 66.195 89.8128 66.1963C89.9367 66.1963 90.0592 66.2208 90.1735 66.2684C90.2878 66.316 90.3916 66.3857 90.4788 66.4736C90.566 66.5614 90.635 66.6657 90.6818 66.7803C90.7285 66.895 90.7521 67.0177 90.7512 67.1415Z" fill="white"/>
<path d="M119.433 223.419H42.4439C41.1219 223.419 39.8541 222.894 38.9194 221.959C37.9846 221.024 37.4595 219.757 37.4595 218.435C37.4595 217.112 37.9844 215.844 38.919 214.908C39.8535 213.972 41.1213 213.445 42.4439 213.443H119.433C120.756 213.445 122.024 213.972 122.958 214.908C123.893 215.844 124.418 217.112 124.418 218.435C124.418 219.089 124.289 219.737 124.038 220.342C123.788 220.947 123.421 221.496 122.958 221.959C122.495 222.422 121.946 222.789 121.341 223.04C120.736 223.29 120.088 223.419 119.433 223.419Z" fill="white"/>
<path d="M138.474 100.584H36.9434V208.711H138.474V100.584Z" fill="#BDD634"/>
<path opacity="0.4" d="M138.474 100.584H36.9434V208.711H138.474V100.584Z" fill="white"/>
<path d="M138.439 101.223L137.637 100.584H129.783L135.012 105.16L107.601 109.689L101.039 100.584H96.225L102.712 110.505L78.375 114.531L75.8794 106.955L86.0794 105.432C87.079 105.283 87.6434 104.691 87.3578 104.12L85.5966 100.584H81.9858L83.3458 103.603L75.1858 104.786L73.8258 100.584H53.4258L55.8194 101.896C56.2838 102.114 56.8045 102.18 57.3086 102.087L66.0058 100.917L69.2154 116.047L36.9902 121.385V128.661L41.7842 127.804L36.9902 175.71V208.717H38.0918L40.8118 204.087L84.8894 189.936L88.7994 208.717H109.118L91.0842 153.637L125.241 145.09L138.439 165.252V152.332L131.959 143.376L138.439 141.758V136.318L128.579 138.664L111.661 115.299L123.065 113.259L138.439 130.721V125.159L126.696 112.599L138.439 110.505V101.223ZM43.7154 192.418L46.823 126.9L70.5686 122.65L82.8698 180.627L43.7154 192.418ZM122.119 140.207L89.3162 148.007L80.4422 120.889L106.452 116.231L122.119 140.207Z" fill="#A1B343"/>
<path d="M90.7518 181.327L102.291 194.451L94.5802 192.778L88.8682 198.415L90.7518 181.327Z" fill="white"/>
<path d="M88.8682 198.415L89.5686 200.149L95.5798 195.124L102.291 196.409V194.451L94.5802 192.778L88.8682 198.415Z" fill="#BDD634"/>
<path d="M109.261 108.315C109.049 108.047 108.783 107.827 108.48 107.669C108.177 107.511 107.843 107.419 107.502 107.399C107.161 107.378 106.819 107.431 106.5 107.552C106.18 107.674 105.89 107.862 105.648 108.103C105.407 108.345 105.219 108.635 105.098 108.955C104.976 109.274 104.924 109.616 104.944 109.957C104.964 110.298 105.056 110.631 105.214 110.934C105.372 111.238 105.592 111.504 105.861 111.715L107.574 113.429L109.288 111.715C109.729 111.258 109.974 110.646 109.969 110.01C109.964 109.374 109.709 108.766 109.261 108.315ZM107.547 110.988C107.357 110.988 107.172 110.932 107.014 110.826C106.857 110.721 106.734 110.571 106.661 110.396C106.589 110.221 106.57 110.028 106.607 109.842C106.644 109.656 106.735 109.485 106.869 109.351C107.003 109.217 107.174 109.126 107.36 109.089C107.546 109.052 107.739 109.071 107.914 109.143C108.089 109.216 108.239 109.339 108.344 109.496C108.45 109.654 108.506 109.839 108.506 110.029C108.506 110.283 108.405 110.527 108.225 110.707C108.045 110.887 107.801 110.988 107.547 110.988Z" fill="white"/>
<path opacity="0.5" d="M92.9547 178.301L75.9547 118.291C75.9335 118.218 75.9282 118.141 75.9392 118.065C75.9502 117.989 75.9771 117.917 76.0183 117.853C76.0595 117.788 76.114 117.733 76.178 117.692C76.2421 117.65 76.3143 117.623 76.3899 117.611L104.773 113.109L104.093 112.253L74.0915 117.115C73.9405 117.14 73.7964 117.197 73.6679 117.28C73.5393 117.363 73.4291 117.472 73.3439 117.599C73.2586 117.726 73.2002 117.869 73.172 118.02C73.1439 118.171 73.1467 118.325 73.1803 118.475L88.2491 179.464L92.9547 178.301Z" fill="white"/>
<path d="M134.21 122.555H130.552C129.789 122.555 129.171 123.173 129.171 123.935V193.431C129.171 194.193 129.789 194.811 130.552 194.811H134.21C134.973 194.811 135.591 194.193 135.591 193.431V123.935C135.591 123.173 134.973 122.555 134.21 122.555Z" fill="white"/>
<path opacity="0.2" d="M132.381 191.479C132.201 191.479 132.028 191.408 131.9 191.28C131.773 191.153 131.701 190.98 131.701 190.799V126.56C131.701 126.38 131.773 126.207 131.9 126.079C132.028 125.952 132.201 125.88 132.381 125.88C132.562 125.88 132.734 125.952 132.862 126.079C132.99 126.207 133.061 126.38 133.061 126.56V190.82C133.056 190.997 132.982 191.164 132.855 191.288C132.728 191.411 132.558 191.48 132.381 191.479Z" fill="black"/>
<path d="M134.02 140.398C134.02 140.722 133.924 141.039 133.744 141.308C133.564 141.578 133.308 141.788 133.008 141.912C132.709 142.036 132.379 142.068 132.061 142.005C131.743 141.942 131.451 141.786 131.222 141.557C130.993 141.328 130.837 141.036 130.774 140.718C130.71 140.4 130.743 140.07 130.867 139.771C130.991 139.471 131.201 139.215 131.471 139.035C131.74 138.855 132.057 138.759 132.381 138.759C132.816 138.759 133.232 138.932 133.54 139.239C133.847 139.546 134.02 139.963 134.02 140.398Z" fill="#BDD634"/>
<path d="M135.325 117.971C135.326 118.556 135.154 119.127 134.83 119.614C134.506 120.1 134.046 120.479 133.506 120.703C132.967 120.928 132.373 120.987 131.799 120.873C131.226 120.759 130.7 120.478 130.287 120.065C129.874 119.652 129.592 119.125 129.479 118.552C129.365 117.979 129.424 117.385 129.648 116.846C129.873 116.306 130.252 115.845 130.738 115.522C131.225 115.198 131.796 115.026 132.38 115.027C132.767 115.027 133.15 115.103 133.507 115.251C133.864 115.399 134.189 115.616 134.462 115.889C134.736 116.163 134.953 116.487 135.101 116.845C135.249 117.202 135.325 117.585 135.325 117.971Z" fill="white"/>
<path opacity="0.2" d="M132.694 115.897H132.055V120.045H132.694V115.897Z" fill="black"/>
<path opacity="0.2" d="M134.455 118.284V117.645H130.307V118.284H134.455Z" fill="black"/>
<path d="M135.325 199.408C135.326 199.992 135.154 200.564 134.83 201.05C134.506 201.537 134.046 201.916 133.506 202.14C132.967 202.364 132.373 202.423 131.799 202.31C131.226 202.196 130.7 201.915 130.287 201.502C129.874 201.089 129.592 200.562 129.479 199.989C129.365 199.416 129.424 198.822 129.648 198.282C129.873 197.743 130.252 197.282 130.738 196.958C131.225 196.635 131.796 196.462 132.38 196.464C133.161 196.464 133.91 196.774 134.462 197.326C135.015 197.878 135.325 198.627 135.325 199.408Z" fill="white"/>
<path opacity="0.2" d="M134.455 199.728V199.089H130.307V199.728H134.455Z" fill="black"/>
<path d="M138.474 82.1218H36.9434V97.6054H138.474V82.1218Z" fill="#263238"/>
<path d="M132.197 223.419C134.95 223.419 137.182 221.188 137.182 218.435C137.182 215.682 134.95 213.45 132.197 213.45C129.444 213.45 127.213 215.682 127.213 218.435C127.213 221.188 129.444 223.419 132.197 223.419Z" fill="#BDD634"/>
<path opacity="0.2" d="M136.951 228.274H38.4666C37.6253 228.274 36.9434 228.956 36.9434 229.797V247.375C36.9434 248.217 37.6253 248.899 38.4666 248.899H136.951C137.792 248.899 138.474 248.217 138.474 247.375V229.797C138.474 228.956 137.792 228.274 136.951 228.274Z" fill="black"/>
<path opacity="0.3" d="M50.2304 89.6564L44.8244 85.4064L39.4116 89.6564H41.6148V92.8592H48.0272V89.6564H50.2304Z" fill="white"/>
<g opacity="0.3">
<path d="M135.046 86.4602H128.226V87.6094H135.046V86.4602Z" fill="white"/>
<path d="M135.046 88.5613H128.226V89.7105H135.046V88.5613Z" fill="white"/>
<path d="M135.046 90.6627H128.226V91.8119H135.046V90.6627Z" fill="white"/>
</g>
<path d="M61.4504 182.408H40.86C40.0601 182.408 39.4116 183.057 39.4116 183.857V204.447C39.4116 205.247 40.0601 205.895 40.86 205.895H61.4504C62.2503 205.895 62.8988 205.247 62.8988 204.447V183.857C62.8988 183.057 62.2503 182.408 61.4504 182.408Z" fill="#263238"/>
<path d="M58.9613 189.453L54.0517 186.053V188.773H46.4697C45.9286 188.773 45.4098 188.988 45.0272 189.371C44.6446 189.753 44.4297 190.272 44.4297 190.813V201.204H45.7285V190.854C45.7285 190.756 45.7478 190.659 45.7854 190.568C45.823 190.477 45.8781 190.395 45.9476 190.325C46.017 190.256 46.0995 190.201 46.1902 190.163C46.281 190.125 46.3783 190.106 46.4765 190.106H54.0517V192.826L58.9613 189.453Z" fill="white"/>
<path d="M200.007 179.967L197.511 190.324C197.511 190.324 171.209 195.084 167.53 201.618C163.851 208.153 176.567 240.8 176.567 240.8H182.354C182.354 240.8 178.757 214.144 181.15 211.397C183.544 208.65 209.357 203.237 209.357 203.237L200.007 179.967Z" fill="#BDD634"/>
<path opacity="0.6" d="M181.15 211.39C178.757 214.11 182.347 240.793 182.347 240.793H176.567C176.567 240.793 163.851 208.153 167.53 201.619C171.209 195.084 197.504 190.324 197.504 190.324L200.007 179.961L206.807 196.886L209.357 203.223C209.357 203.223 196.056 206.025 187.665 208.609C184.367 209.636 181.83 210.622 181.15 211.39Z" fill="white"/>
<path opacity="0.2" d="M209.357 203.223C209.357 203.223 196.056 206.025 187.665 208.609C190.031 202.373 200.109 198.307 200.109 198.307L200.979 189.467C203.096 191.803 205.044 194.286 206.807 196.899L209.357 203.223Z" fill="black"/>
<path d="M180.838 252.258L184.53 251L183.388 245.655L182.334 240.746L177.71 241.521L179.362 247.206L180.838 252.258Z" fill="#E4897B"/>
<path d="M185.258 250.796C185.258 250.368 179.961 250.755 179.961 250.755C179.961 250.755 176.745 254.101 173.596 254.876C170.448 255.651 172.236 257.528 175.759 257.494L184.49 257.399C186.999 257.372 185.408 255.25 185.258 250.796Z" fill="#BDD634"/>
<path d="M176.73 252.02C176.654 251.95 176.6 251.859 176.575 251.759C176.551 251.658 176.558 251.553 176.594 251.456C176.613 251.379 176.647 251.308 176.695 251.246C176.743 251.184 176.804 251.132 176.873 251.095C177.247 250.94 177.656 250.891 178.056 250.952C177.628 250.728 177.247 250.456 177.227 250.177C177.206 249.898 177.329 249.844 177.567 249.728C177.673 249.679 177.789 249.654 177.907 249.654C178.024 249.654 178.14 249.679 178.247 249.728C178.967 250.021 179.423 251.245 179.443 251.299C179.447 251.319 179.447 251.34 179.443 251.36C179.443 251.372 179.443 251.383 179.443 251.394V251.435L179.403 251.469C178.829 251.755 178.224 251.971 177.601 252.115C177.457 252.16 177.305 252.174 177.155 252.158C177.006 252.141 176.861 252.095 176.73 252.02ZM177.016 251.34C176.979 251.359 176.946 251.386 176.92 251.419C176.895 251.452 176.876 251.49 176.866 251.53C176.812 251.734 176.866 251.789 176.9 251.809C177.152 252.013 178.117 251.707 178.893 251.374C178.283 251.188 177.633 251.174 177.016 251.333V251.34ZM177.696 249.98C177.628 250.014 177.505 250.082 177.512 250.157C177.512 250.395 178.287 250.796 179.076 251.088C178.897 250.625 178.576 250.229 178.158 249.96C178.062 249.919 177.955 249.907 177.852 249.926C177.796 249.937 177.741 249.955 177.689 249.98H177.696Z" fill="#263238"/>
<path opacity="0.2" d="M179.403 247.321L183.421 245.757L182.354 240.8L177.716 241.548L179.403 247.321Z" fill="black"/>
<path d="M183.381 238.325L175.262 239.821L176.962 242.69L183.633 241.378L183.381 238.325Z" fill="#BDD634"/>
<path d="M217.415 254.434L214.6 260.921C214.067 262.146 213.188 263.189 212.07 263.921C210.953 264.653 209.646 265.043 208.31 265.042H196.505C195.73 265.043 194.962 264.89 194.246 264.594C193.529 264.298 192.878 263.863 192.33 263.315H170.277C169.424 263.315 168.584 263.113 167.824 262.724C167.065 262.335 166.41 261.77 165.912 261.078L162.995 256.998L217.415 254.434Z" fill="#2E353A"/>
<path opacity="0.4" d="M217.415 254.434L214.6 260.921C214.067 262.146 213.188 263.189 212.07 263.921C210.953 264.653 209.646 265.043 208.31 265.042H196.505C195.73 265.043 194.962 264.89 194.246 264.594C193.529 264.298 192.878 263.863 192.33 263.315H170.277C169.424 263.315 168.584 263.113 167.824 262.724C167.065 262.335 166.41 261.77 165.912 261.078L162.995 256.998L217.415 254.434Z" fill="black"/>
<path d="M165.926 183.734C165.886 183.734 165.847 183.724 165.813 183.705C165.778 183.686 165.748 183.659 165.726 183.626C165.704 183.594 165.69 183.556 165.686 183.517C165.682 183.478 165.687 183.438 165.701 183.401C166.599 181.184 171.352 179.233 175.044 178.872C176.208 178.805 177.364 178.653 178.506 178.417C178.536 178.4 178.57 178.391 178.604 178.391C178.639 178.391 178.673 178.4 178.703 178.417C178.733 178.425 178.762 178.44 178.787 178.46C178.812 178.48 178.832 178.504 178.847 178.532C178.863 178.56 178.872 178.591 178.875 178.622C178.878 178.654 178.875 178.686 178.866 178.716C178.818 178.886 178.777 179.022 175.092 179.396C171.542 179.743 166.932 181.626 166.15 183.626C166.126 183.662 166.092 183.692 166.053 183.711C166.013 183.73 165.969 183.738 165.926 183.734Z" fill="#263238"/>
<path d="M153.461 183.442H153.359C151.761 182.667 151.469 181.627 151.061 180.185L151.006 179.981C150.639 178.689 149.136 178.866 149.075 178.879C149.011 178.887 148.947 178.869 148.896 178.83C148.845 178.79 148.811 178.732 148.803 178.669C148.799 178.637 148.802 178.606 148.81 178.575C148.819 178.545 148.833 178.517 148.853 178.492C148.873 178.467 148.897 178.447 148.924 178.431C148.952 178.416 148.982 178.407 149.014 178.403C149.529 178.308 150.061 178.402 150.512 178.668C150.964 178.934 151.303 179.355 151.469 179.852L151.523 180.049C151.911 181.409 152.169 182.327 153.563 183.007C153.62 183.035 153.664 183.084 153.685 183.143C153.707 183.203 153.704 183.269 153.679 183.327C153.656 183.364 153.624 183.394 153.586 183.415C153.548 183.435 153.504 183.445 153.461 183.442Z" fill="#263238"/>
<path d="M256.488 248.688H255.128V246.601H257.848C257.823 247.037 257.685 247.459 257.446 247.826C257.208 248.192 256.877 248.489 256.488 248.688Z" fill="#2E353A"/>
<path d="M235.537 276.344C245.542 276.344 253.652 266.556 253.652 254.482C253.652 242.408 245.542 232.62 235.537 232.62C225.532 232.62 217.422 242.408 217.422 254.482C217.422 266.556 225.532 276.344 235.537 276.344Z" fill="#2E353A"/>
<path d="M238.57 268.272C244.879 268.272 249.994 262.098 249.994 254.482C249.994 246.865 244.879 240.691 238.57 240.691C232.261 240.691 227.146 246.865 227.146 254.482C227.146 262.098 232.261 268.272 238.57 268.272Z" fill="black"/>
<path d="M241.195 260.044C243.823 260.044 245.955 257.472 245.955 254.298C245.955 251.125 243.823 248.552 241.195 248.552C238.566 248.552 236.435 251.125 236.435 254.298C236.435 257.472 238.566 260.044 241.195 260.044Z" fill="#263238"/>
<path opacity="0.4" d="M241.195 260.044C243.823 260.044 245.955 257.472 245.955 254.298C245.955 251.125 243.823 248.552 241.195 248.552C238.566 248.552 236.435 251.125 236.435 254.298C236.435 257.472 238.566 260.044 241.195 260.044Z" fill="black"/>
<path d="M254.719 243.282C254.719 243.282 256.759 247.716 254.719 251.211C248.608 254.189 241.919 255.797 235.122 255.923C224.432 255.923 238.345 242.248 254.719 243.282Z" fill="#2E353A"/>
<path opacity="0.6" d="M254.719 243.282C254.719 243.282 256.759 247.716 254.719 251.211C248.608 254.189 241.919 255.797 235.122 255.923C224.432 255.923 238.345 242.248 254.719 243.282Z" fill="white"/>
<path d="M263.668 246.437C263.668 246.199 263.573 245.971 263.405 245.803C263.237 245.634 263.008 245.54 262.77 245.54C262.612 245.546 262.457 245.593 262.322 245.676C262.236 245.542 262.118 245.432 261.98 245.354C261.841 245.277 261.685 245.236 261.526 245.234C261.268 245.234 261.019 245.336 260.836 245.518C260.653 245.7 260.549 245.948 260.547 246.206C260.548 246.34 260.578 246.473 260.635 246.594C260.455 246.799 260.354 247.062 260.35 247.335C260.348 247.572 260.419 247.805 260.552 248.001C260.686 248.197 260.876 248.348 261.097 248.433C261.319 248.519 261.561 248.535 261.792 248.48C262.023 248.425 262.231 248.3 262.39 248.124C262.503 248.206 262.638 248.251 262.777 248.253C262.958 248.253 263.131 248.181 263.258 248.054C263.386 247.926 263.457 247.753 263.457 247.573C263.456 247.416 263.401 247.265 263.301 247.145C263.414 247.064 263.506 246.958 263.569 246.835C263.633 246.712 263.667 246.576 263.668 246.437Z" fill="#BDD634"/>
<path d="M259.84 249.98C259.84 249.823 259.778 249.671 259.667 249.559C259.557 249.447 259.406 249.383 259.249 249.382C259.142 249.385 259.038 249.418 258.949 249.477C258.894 249.387 258.818 249.312 258.726 249.26C258.634 249.208 258.531 249.179 258.426 249.178C258.257 249.186 258.098 249.257 257.978 249.376C257.859 249.495 257.788 249.655 257.78 249.824C257.779 249.913 257.798 250.001 257.834 250.082C257.736 250.193 257.673 250.331 257.652 250.477C257.631 250.624 257.653 250.774 257.716 250.908C257.779 251.042 257.879 251.155 258.005 251.233C258.131 251.311 258.278 251.351 258.426 251.347C258.532 251.347 258.638 251.325 258.735 251.281C258.832 251.238 258.919 251.175 258.99 251.095C259.066 251.149 259.156 251.179 259.249 251.184C259.373 251.184 259.492 251.134 259.58 251.046C259.668 250.958 259.718 250.839 259.718 250.714C259.716 250.613 259.68 250.514 259.616 250.436C259.685 250.381 259.741 250.312 259.78 250.233C259.819 250.155 259.839 250.068 259.84 249.98Z" fill="#BDD634"/>
<path d="M247.301 215.572C247.301 215.572 249.049 216.109 249.049 220.046C249.049 222.433 246.628 224.847 246.628 224.847C246.628 224.847 242.725 215.436 247.301 215.572Z" fill="#BDD634"/>
<path opacity="0.7" d="M247.301 215.572C247.301 215.572 249.049 216.109 249.049 220.046C249.049 222.433 246.628 224.847 246.628 224.847C246.628 224.847 242.725 215.436 247.301 215.572Z" fill="white"/>
<path d="M239.447 214.491H248.104C248.104 214.491 249.464 216.789 245.955 219.475C242.446 222.161 239.447 214.491 239.447 214.491Z" fill="#263238"/>
<path d="M247.974 220.414C248.271 220.414 248.511 219.789 248.511 219.02C248.511 218.25 248.271 217.626 247.974 217.626C247.678 217.626 247.437 218.25 247.437 219.02C247.437 219.789 247.678 220.414 247.974 220.414Z" fill="white"/>
<path d="M199.456 228.73C199.456 231.838 187.06 253.89 185.815 254.801C184.571 255.713 168.407 254.693 168.407 254.693L169.611 259.276H214.049L232.497 223.447L220.298 205.835L198.055 206.453C198.055 206.453 199.456 225.629 199.456 228.73Z" fill="#263238"/>
<path opacity="0.2" d="M199.456 228.73C199.456 231.838 187.06 253.89 185.815 254.801C184.571 255.713 168.407 254.693 168.407 254.693L169.611 259.276H214.049L232.497 223.447L220.298 205.835L198.055 206.453C198.055 206.453 199.456 225.629 199.456 228.73Z" fill="black"/>
<path d="M134.598 221.461C134.598 221.461 149.048 232.538 155.963 255.332C156.352 256.635 157.149 257.778 158.238 258.592C159.327 259.407 160.649 259.849 162.008 259.854H183.381L158.568 219.496L145.484 214.056L134.598 221.461Z" fill="#263238"/>
<path opacity="0.4" d="M132.885 220.182C132.885 220.182 148.865 232.422 155.957 255.359C156.35 256.656 157.149 257.792 158.236 258.601C159.323 259.41 160.641 259.849 161.996 259.854H183.382L158.568 219.496L145.485 214.056L132.885 220.182Z" fill="black"/>
<path d="M257.44 241.14C257.39 241.567 257.183 241.96 256.861 242.243C256.538 242.527 256.122 242.681 255.692 242.677H252.551C252.263 242.676 251.979 242.737 251.716 242.854C251.454 242.971 251.219 243.143 251.028 243.357L241.596 253.72C241.312 254.032 240.982 254.298 240.617 254.509C234.373 258.008 227.334 259.844 220.176 259.84H176.262C175.095 259.827 173.975 259.378 173.122 258.582C172.269 257.785 171.744 256.699 171.651 255.536C170.584 242.84 162.92 233.531 156.508 227.812C154.451 225.988 152.272 224.306 149.986 222.78C148.383 221.73 146.504 221.181 144.587 221.202H134.482C133.204 221.202 132.3 219.577 132.694 218.367C134.36 213.308 137.454 207.874 140.528 203.203C143.287 199.036 146.284 195.031 149.504 191.208H163.641C164.356 191.221 165.057 191.409 165.682 191.755C166.308 192.101 166.84 192.595 167.231 193.193C167.955 194.225 168.257 195.495 168.074 196.743C167.208 202.552 167.144 208.453 167.884 214.28C169.924 231.525 177.581 247.206 181.586 254.346C182.281 255.625 183.302 256.699 184.545 257.458C185.788 258.217 187.209 258.636 188.665 258.67H199.64C207.671 256.365 213.879 233.884 213.879 228.009C213.879 221.801 207.562 206.752 207.562 206.752H239.08V214.232C239.658 214.3 239.372 214.375 239.556 214.464C251.612 219.305 255.822 231.668 257.318 238.869C257.476 239.615 257.517 240.381 257.44 241.14Z" fill="#263238"/>
<path d="M157.153 186.522H161.179C162.241 186.522 163.27 186.157 164.096 185.489L172.399 178.771C172.726 178.507 173.134 178.363 173.555 178.362H189.501C189.66 178.375 189.819 178.354 189.97 178.302C190.12 178.249 190.258 178.166 190.375 178.058C190.492 177.95 190.585 177.819 190.649 177.673C190.713 177.527 190.745 177.369 190.745 177.21C190.745 177.051 190.713 176.893 190.649 176.747C190.585 176.601 190.492 176.47 190.375 176.362C190.258 176.254 190.12 176.171 189.97 176.118C189.819 176.066 189.66 176.045 189.501 176.057H173.555C172.604 176.058 171.683 176.385 170.944 176.982L162.641 183.68C162.227 184.015 161.711 184.197 161.179 184.197H157.153C156.594 184.193 156.054 183.99 155.631 183.623C155.209 183.257 154.931 182.751 154.848 182.198L154.481 179.607C154.34 178.623 153.85 177.721 153.102 177.066C152.354 176.412 151.395 176.046 150.401 176.037H147.361C147.202 176.025 147.043 176.045 146.892 176.098C146.742 176.15 146.604 176.233 146.487 176.341C146.37 176.45 146.277 176.581 146.213 176.727C146.15 176.873 146.117 177.03 146.117 177.189C146.117 177.349 146.15 177.506 146.213 177.652C146.277 177.798 146.37 177.929 146.487 178.038C146.604 178.146 146.742 178.229 146.892 178.281C147.043 178.334 147.202 178.354 147.361 178.342H150.401C150.844 178.344 151.272 178.505 151.606 178.796C151.941 179.087 152.16 179.488 152.223 179.927L152.59 182.517C152.748 183.62 153.294 184.629 154.131 185.364C154.968 186.098 156.04 186.509 157.153 186.522Z" fill="#2E353A"/>
<path d="M167.245 189.617L165.443 192.52H148.688L147.375 190.045C147.163 189.65 147.083 189.197 147.146 188.753C147.21 188.308 147.414 187.896 147.729 187.577L152.706 182.483C152.894 182.29 153.11 182.125 153.346 181.994C153.466 181.925 153.591 181.866 153.72 181.817C154.036 181.694 154.373 181.632 154.712 181.633H164.232C164.232 181.633 164.185 184.353 166.735 184.19L167.571 187.141C167.692 187.554 167.725 187.987 167.669 188.413C167.613 188.839 167.468 189.249 167.245 189.617Z" fill="#BDD634"/>
<path opacity="0.4" d="M157.949 185.292H159.806L152.292 189.875L150.687 185.115H152.618L153.346 182C153.466 181.932 153.591 181.873 153.72 181.824C154.036 181.701 154.373 181.639 154.713 181.64H163.036L157.949 185.292Z" fill="white"/>
<path opacity="0.4" d="M161.811 181.626L153.461 188.046L160.05 181.626H161.811Z" fill="white"/>
<path opacity="0.4" d="M154.841 181.64L152.563 188.059L153.719 181.824C154.036 181.701 154.373 181.639 154.712 181.64H154.841Z" fill="white"/>
<path d="M195.213 205.984V208.16C195.213 210.125 196.825 211.404 198.79 211.404H237.802C239.781 211.404 241.358 210.125 241.358 208.16V205.984C241.358 204.019 239.781 202.74 237.802 202.74H198.79C196.825 202.72 195.213 204.019 195.213 205.984Z" fill="#2E353A"/>
<path opacity="0.2" d="M238.114 202.741H211.145C209.354 202.741 207.901 204.193 207.901 205.984V208.147C207.901 209.938 209.354 211.39 211.145 211.39H238.114C239.905 211.39 241.357 209.938 241.357 208.147V205.984C241.357 204.193 239.905 202.741 238.114 202.741Z" fill="white"/>
<path d="M257.44 241.14C257.39 241.567 257.183 241.96 256.861 242.244C256.538 242.527 256.122 242.682 255.692 242.677H252.551C252.263 242.677 251.979 242.737 251.716 242.854C251.454 242.971 251.219 243.143 251.028 243.357L241.596 253.72C241.312 254.032 240.982 254.298 240.617 254.509C234.373 258.008 227.334 259.844 220.176 259.84H212.812V245.941C212.811 241.878 213.702 237.864 215.423 234.184L220.625 223.052C221.814 220.503 223.707 218.347 226.08 216.836C228.453 215.326 231.208 214.524 234.021 214.525H238.89L239.447 214.491C244.079 216.376 248.064 219.565 250.919 223.671C251.204 224.065 251.476 224.467 251.742 224.868C252.601 226.193 253.367 227.577 254.033 229.009C254.592 230.186 255.089 231.391 255.522 232.62C256.26 234.667 256.851 236.765 257.29 238.896C257.455 239.632 257.505 240.389 257.44 241.14Z" fill="#BDD634"/>
<path d="M180.242 168.28L173.992 176.452L174.91 177.154L181.16 168.982L180.242 168.28Z" fill="#2E353A"/>
<path d="M184 167.265H181.055C180.75 167.265 180.451 167.355 180.196 167.523C179.941 167.691 179.741 167.93 179.62 168.21L179.24 169.128C179.137 169.365 179.095 169.625 179.117 169.882C179.14 170.14 179.226 170.388 179.369 170.604C179.511 170.82 179.705 170.997 179.933 171.119C180.161 171.242 180.416 171.305 180.674 171.304H183.877C184.256 171.304 184.621 171.166 184.906 170.915C185.19 170.665 185.373 170.32 185.421 169.944L185.557 169.026C185.585 168.805 185.565 168.581 185.5 168.369C185.434 168.156 185.324 167.96 185.177 167.793C185.03 167.626 184.848 167.493 184.645 167.402C184.442 167.311 184.222 167.264 184 167.265Z" fill="#BDD634"/>
<path d="M150.877 169.56L149.746 169.798L151.284 177.104L152.416 176.866L150.877 169.56Z" fill="#2E353A"/>
<path d="M146.858 167.265H150C150.311 167.265 150.611 167.377 150.846 167.581C151.081 167.784 151.234 168.066 151.278 168.373L151.482 169.835C151.509 170.018 151.496 170.204 151.444 170.38C151.392 170.557 151.303 170.721 151.182 170.86C151.061 170.999 150.912 171.111 150.745 171.188C150.577 171.264 150.395 171.304 150.211 171.304H147.042C146.732 171.304 146.433 171.191 146.199 170.988C145.965 170.784 145.813 170.503 145.77 170.196L145.56 168.734C145.533 168.549 145.547 168.361 145.6 168.182C145.654 168.003 145.745 167.838 145.869 167.699C145.992 167.559 146.145 167.448 146.316 167.373C146.487 167.298 146.672 167.261 146.858 167.265Z" fill="#BDD634"/>
<path d="M167.639 200.204C167.325 203.616 167.287 207.047 167.524 210.465C167.61 211.757 167.73 213.038 167.884 214.307L160.812 227.812H156.508L156.093 227.452L155.671 227.084C153.867 225.54 151.973 224.102 150 222.78C148.397 221.73 146.517 221.181 144.601 221.202H134.482C133.204 221.202 132.3 219.577 132.694 218.367C134.36 213.308 137.454 207.874 140.528 203.203C140.61 208.653 140.198 214.099 139.297 219.475H144.152C144.152 219.475 152.992 206.922 160.547 204.515L167.231 193.2C167.955 194.232 168.257 195.502 168.074 196.75C167.891 197.892 167.748 199.048 167.639 200.204Z" fill="#BDD634"/>
<path d="M139.296 206.671C139.546 210.256 139.101 213.856 137.984 217.272H133.822C133.822 217.272 136.522 209.914 139.296 206.671Z" fill="#BDD634"/>
<path opacity="0.7" d="M139.296 206.671C139.546 210.256 139.101 213.856 137.984 217.272H133.822C133.822 217.272 136.522 209.914 139.296 206.671Z" fill="white"/>
<path d="M158.989 206.671C159.125 206.589 154.807 218.04 154.807 218.04H148.47C150.862 213.354 154.502 209.419 158.989 206.671Z" fill="#BDD634"/>
<path opacity="0.7" d="M158.989 206.671C159.125 206.589 154.807 218.04 154.807 218.04H148.47C150.862 213.354 154.502 209.419 158.989 206.671Z" fill="white"/>
<path d="M153.23 217.483C154.331 217.483 155.223 216.332 155.223 214.912C155.223 213.493 154.331 212.342 153.23 212.342C152.13 212.342 151.238 213.493 151.238 214.912C151.238 216.332 152.13 217.483 153.23 217.483Z" fill="white"/>
<path d="M138.44 214.056C138.44 215.47 137.814 216.626 137.039 216.626C136.264 216.626 135.631 215.47 135.631 214.056C135.631 212.641 136.264 211.478 137.039 211.478C137.814 211.478 138.44 212.634 138.44 214.056Z" fill="white"/>
<path d="M157.072 211.036C157.025 211.218 156.928 211.384 156.792 211.513C156.656 211.643 156.486 211.732 156.302 211.77C156.118 211.808 155.927 211.794 155.75 211.729C155.574 211.664 155.419 211.551 155.304 211.403C155.188 211.255 155.116 211.077 155.097 210.89C155.077 210.703 155.11 210.514 155.193 210.345C155.275 210.176 155.403 210.033 155.562 209.933C155.721 209.833 155.905 209.779 156.093 209.778C156.387 209.821 156.654 209.975 156.836 210.21C157.019 210.445 157.103 210.741 157.072 211.036Z" fill="white"/>
<path d="M138.99 210.377C138.99 211.057 138.691 211.635 138.31 211.635C137.93 211.635 137.63 211.077 137.63 210.377C137.63 209.676 137.93 209.126 138.31 209.126C138.691 209.126 138.99 209.683 138.99 210.377Z" fill="white"/>
<path opacity="0.4" d="M167.523 210.465L158.989 227.465H156.12L155.698 227.098L158.35 225.942L163.443 212.852L161.288 213.457L167.666 200.218C167.344 203.624 167.296 207.051 167.523 210.465Z" fill="white"/>
<path d="M158.323 193.146C158.323 193.146 155.331 211.995 145.444 212.124C136.176 212.24 135.312 194.56 144.152 191.84C151.299 189.637 158.323 193.146 158.323 193.146Z" fill="#263238"/>
<path d="M158.323 193.146C158.323 193.146 155.331 211.995 145.444 212.124C136.176 212.24 135.312 194.56 144.152 191.84C151.299 189.637 158.323 193.146 158.323 193.146Z" fill="#BDD634"/>
<path opacity="0.7" d="M152.214 202.63C152.788 197.865 150.221 193.637 146.481 193.187C142.741 192.738 139.245 196.236 138.671 201.001C138.098 205.766 140.665 209.994 144.405 210.444C148.145 210.894 151.641 207.395 152.214 202.63Z" fill="white"/>
<path d="M147.123 204.08C147.123 206.195 145.763 207.915 144.152 207.915C142.54 207.915 141.16 206.188 141.16 204.08C141.16 201.972 142.52 200.245 144.138 200.245C145.756 200.245 147.123 201.958 147.123 204.08Z" fill="white"/>
<path d="M149.639 199.089C149.639 200.15 148.959 201.007 148.157 201.007C147.354 201.007 146.667 200.15 146.667 199.089C146.667 198.028 147.347 197.171 148.157 197.171C148.966 197.171 149.639 198.028 149.639 199.089Z" fill="white"/>
<path d="M256.896 237.169H253.951C253.702 237.169 253.464 237.268 253.288 237.444C253.112 237.62 253.013 237.858 253.013 238.107V239.753C253.013 240.002 253.112 240.241 253.288 240.417C253.464 240.592 253.702 240.691 253.951 240.691H257.44C257.596 240.098 257.628 239.48 257.535 238.873C257.441 238.267 257.223 237.687 256.896 237.169Z" fill="#BDD634"/>
<path opacity="0.7" d="M256.896 237.169H253.951C253.702 237.169 253.464 237.268 253.288 237.444C253.112 237.62 253.013 237.858 253.013 238.107V239.753C253.013 240.002 253.112 240.241 253.288 240.417C253.464 240.592 253.702 240.691 253.951 240.691H257.44C257.596 240.098 257.628 239.48 257.535 238.873C257.441 238.267 257.223 237.687 256.896 237.169Z" fill="white"/>
<path opacity="0.4" d="M238.569 237.679L241.969 242.69C230.722 254.781 215.341 256.392 212.818 256.576V255.862C229.94 252.992 237.128 241.983 237.128 241.983L231.831 235.36C234.075 232.241 236.919 229.602 240.197 227.597C243.475 225.592 247.12 224.262 250.918 223.684C251.204 224.079 251.476 224.48 251.741 224.881C252.601 226.206 253.367 227.59 254.033 229.022C254.591 230.199 255.088 231.405 255.522 232.633C244.662 233.225 238.569 237.679 238.569 237.679Z" fill="white"/>
<path opacity="0.4" d="M234.612 235.707L236.02 238.325L233.354 235.258C238.268 229.999 244.676 226.372 251.714 224.868C252.574 226.193 253.34 227.577 254.006 229.009C247.103 229.677 240.457 231.973 234.612 235.707Z" fill="white"/>
<path opacity="0.3" d="M238.399 243.806C225.513 254.883 214.851 256.379 212.791 256.569V255.889C225.112 254.516 236.971 245.002 238.399 243.806Z" fill="white"/>
<path d="M181.15 176.057C181.15 176.057 181.055 175.493 179.573 175.493C178.09 175.493 177.567 177.642 177.567 177.642L178.165 179.457H180.205L181.178 179.111C181.178 179.111 184.85 180.063 185.183 180.668C185.516 181.273 186.046 181.409 185.863 180.668C185.679 179.927 181.735 178.335 181.735 178.335L181.15 176.057Z" fill="#2E353A"/>
<path d="M151.523 176.2C151.42 175.981 151.256 175.797 151.051 175.668C150.846 175.539 150.609 175.471 150.367 175.472C150.201 175.453 150.033 175.467 149.873 175.515C149.713 175.563 149.565 175.644 149.437 175.751C149.31 175.859 149.206 175.992 149.132 176.142C149.058 176.291 149.015 176.455 149.007 176.622C148.969 177.074 148.969 177.529 149.007 177.982L148.191 178.621C148.191 178.621 145.689 179.797 145.471 179.981C145.253 180.164 145.158 180.817 145.6 180.749C146.042 180.681 146.715 180.069 147.525 179.607C148.197 179.291 148.924 179.106 149.667 179.063L151.183 178.131L151.523 176.2Z" fill="#2E353A"/>
<path d="M139.596 221.536L129.613 254.046L132.15 255.61L142.173 224.058L139.596 221.536Z" fill="#263238"/>
<path opacity="0.6" d="M139.596 221.536L129.613 254.046L132.15 255.61L142.173 224.058L139.596 221.536Z" fill="white"/>
<path d="M143.757 221.203L139.596 234.565H138.807C137.345 232.831 136.087 232.967 136.087 232.967L135.563 232.198L138.719 221.203H143.757Z" fill="#2E353A"/>
<path d="M133.449 253.57C133.449 255.25 132.49 256.617 131.313 256.617C130.137 256.617 129.178 255.257 129.178 253.57C129.178 251.884 130.137 250.524 131.313 250.524C132.49 250.524 133.449 251.884 133.449 253.57Z" fill="#2E353A"/>
<path d="M160.635 252.632H156.337C155.756 252.633 155.184 252.476 154.685 252.178C154.186 251.88 153.777 251.452 153.502 250.939C151.258 246.73 144.723 235.938 135.529 233.259C124.051 229.941 141.772 227.948 148.157 232.531C154.542 237.115 160.635 252.632 160.635 252.632Z" fill="#BDD634"/>
<path opacity="0.4" d="M160.635 252.632H156.337C155.756 252.633 155.184 252.476 154.685 252.178C154.186 251.88 153.777 251.452 153.502 250.939C151.258 246.73 144.723 235.938 135.529 233.259C124.051 229.941 141.772 227.948 148.157 232.531C154.542 237.115 160.635 252.632 160.635 252.632Z" fill="black"/>
<path d="M135.53 276.344C145.535 276.344 153.645 266.556 153.645 254.482C153.645 242.408 145.535 232.62 135.53 232.62C125.525 232.62 117.415 242.408 117.415 254.482C117.415 266.556 125.525 276.344 135.53 276.344Z" fill="#2E353A"/>
<path d="M138.562 268.272C144.871 268.272 149.986 262.098 149.986 254.482C149.986 246.865 144.871 240.691 138.562 240.691C132.253 240.691 127.138 246.865 127.138 254.482C127.138 262.098 132.253 268.272 138.562 268.272Z" fill="black"/>
<path d="M141.187 260.044C143.816 260.044 145.947 257.472 145.947 254.298C145.947 251.125 143.816 248.552 141.187 248.552C138.558 248.552 136.427 251.125 136.427 254.298C136.427 257.472 138.558 260.044 141.187 260.044Z" fill="#263238"/>
<path opacity="0.4" d="M141.187 260.044C143.816 260.044 145.947 257.472 145.947 254.298C145.947 251.125 143.816 248.552 141.187 248.552C138.558 248.552 136.427 251.125 136.427 254.298C136.427 257.472 138.558 260.044 141.187 260.044Z" fill="black"/>
<path d="M120.896 240.8H122.936C124.607 240.794 126.231 240.247 127.567 239.243C130.695 236.897 137.311 232.973 144.179 235.244C152.135 237.883 157.534 248.314 159.071 251.619C159.212 251.922 159.436 252.179 159.718 252.359C160 252.538 160.328 252.633 160.662 252.632C160.662 252.632 158.16 232.232 144.179 226.649C130.579 221.264 121.433 232.592 119.454 238.78C119.38 239.01 119.36 239.254 119.397 239.492C119.434 239.731 119.526 239.957 119.666 240.153C119.806 240.35 119.991 240.511 120.204 240.623C120.418 240.735 120.655 240.796 120.896 240.8Z" fill="#BDD634"/>
<path d="M153.4 225.214L150.428 234.564L143.744 255.61L141.16 254.04L147.633 232.96L150.625 223.215C151.448 223.8 152.366 224.439 153.4 225.214Z" fill="#263238"/>
<path opacity="0.6" d="M153.4 225.214L150.428 234.564L143.744 255.61L141.16 254.04L147.633 232.96L150.625 223.215C151.448 223.8 152.366 224.439 153.4 225.214Z" fill="white"/>
<path d="M153.93 225.656L151.155 234.564H150.367C148.905 232.83 147.647 232.966 147.647 232.966L147.123 232.198L149.843 222.678C149.89 222.703 149.935 222.73 149.979 222.76L150.659 223.202C151.468 223.752 152.386 224.419 153.379 225.194L153.93 225.656Z" fill="#2E353A"/>
<path d="M145.009 253.57C145.009 255.25 144.05 256.617 142.873 256.617C141.697 256.617 140.738 255.257 140.738 253.57C140.738 251.884 141.697 250.524 142.873 250.524C144.05 250.524 145.009 251.884 145.009 253.57Z" fill="#2E353A"/>
<path d="M200.823 150.36L200.259 157.663L200.007 160.846C200.007 160.846 199.069 162.668 197.641 164.878C195.274 168.537 191.568 173.256 188.597 172.494C183.837 171.277 186.72 162.757 186.72 162.757L190.834 163.838C190.834 163.838 197.6 150.639 200.823 150.36Z" fill="#BDD634"/>
<path opacity="0.2" d="M200.259 157.684L200.007 160.866C200.007 160.866 199.069 162.688 197.641 164.898C196.689 161.58 199.681 156.487 199.681 156.487C199.952 156.842 200.149 157.25 200.259 157.684Z" fill="black"/>
<path d="M222.08 140.058C222.08 140.058 221.162 142.846 223.283 148.273C225.942 155.073 222.746 162.553 214.443 162.233C206.141 161.913 205.841 156.494 205.372 150.755C204.903 145.015 207.446 135.958 209.969 135.924C212.492 135.89 222.08 140.058 222.08 140.058Z" fill="#263238"/>
<path d="M219.04 181.422C224.031 189.977 226.255 197.362 220.087 205.059C213.92 212.757 201.19 230.831 200.911 232.674C200.632 234.517 211.2 260.69 211.2 260.69L206.664 263.553C206.664 263.553 188.617 234.809 187.298 228.302C185.978 221.794 202.502 198.307 202.502 198.307C202.502 198.307 200.367 188.216 199.986 179.947C199.606 171.678 219.04 181.422 219.04 181.422Z" fill="#BDD634"/>
<path opacity="0.6" d="M219.04 181.422C224.031 189.977 226.255 197.362 220.087 205.059C213.92 212.757 201.19 230.831 200.911 232.674C200.632 234.517 211.2 260.69 211.2 260.69L206.664 263.553C206.664 263.553 188.617 234.809 187.298 228.302C185.978 221.794 202.502 198.307 202.502 198.307C202.502 198.307 200.367 188.216 199.986 179.947C199.606 171.678 219.04 181.422 219.04 181.422Z" fill="white"/>
<path d="M210.874 272.978L214.342 271.196L212.438 266.069L210.683 261.37L206.216 262.812L208.677 268.191L210.874 272.978Z" fill="#E4897B"/>
<path d="M214.838 270.72C214.838 270.285 209.547 270.625 209.547 270.625C209.547 270.625 206.29 273.93 203.135 274.705C199.98 275.48 201.741 277.343 205.27 277.343H214.001C216.51 277.343 214.946 275.201 214.838 270.72Z" fill="#BDD634"/>
<path d="M206.297 271.876C206.221 271.807 206.168 271.717 206.145 271.617C206.122 271.518 206.13 271.413 206.168 271.318C206.188 271.242 206.224 271.171 206.273 271.109C206.322 271.047 206.384 270.995 206.453 270.958C206.827 270.801 207.238 270.757 207.637 270.829C207.208 270.598 206.834 270.319 206.814 270.04C206.814 269.863 206.923 269.714 207.161 269.598C207.267 269.549 207.383 269.523 207.501 269.523C207.618 269.523 207.734 269.549 207.841 269.598C208.555 269.897 209.003 271.128 209.017 271.182C209.031 271.217 209.031 271.256 209.017 271.291L208.969 271.332C208.284 271.682 207.543 271.912 206.78 272.012C206.607 272.03 206.435 271.981 206.297 271.876ZM206.589 271.196C206.552 271.215 206.52 271.242 206.494 271.275C206.468 271.308 206.45 271.346 206.44 271.386C206.385 271.59 206.44 271.645 206.474 271.665C206.725 271.869 207.691 271.577 208.473 271.244C207.861 271.056 207.21 271.04 206.589 271.196ZM207.269 269.836C207.195 269.836 207.079 269.938 207.079 270.013C207.079 270.251 207.847 270.659 208.629 270.958C208.461 270.49 208.143 270.091 207.725 269.822C207.658 269.794 207.587 269.778 207.514 269.775C207.432 269.782 207.353 269.808 207.283 269.85L207.269 269.836Z" fill="#263238"/>
<path opacity="0.2" d="M208.731 268.299L212.485 266.164L210.703 261.418L206.229 262.832L208.731 268.299Z" fill="black"/>
<path d="M211.758 259.602L203.938 262.261L206.039 264.852L212.451 262.587L211.758 259.602Z" fill="#BDD634"/>
<path d="M219.04 178.635V181.423L200.007 179.967V176.669L219.04 178.635Z" fill="#263238"/>
<path d="M204.134 180.501L208.3 180.874L208.583 177.718L204.417 177.345L204.134 180.501Z" fill="white"/>
<path d="M212.4 182.288L213.344 182.336L213.589 177.528L212.646 177.48L212.4 182.288Z" fill="#BDD634"/>
<path opacity="0.6" d="M212.4 182.288L213.344 182.336L213.589 177.528L212.646 177.48L212.4 182.288Z" fill="white"/>
<path d="M200.768 181.016L201.712 181.064L201.957 176.256L201.013 176.207L200.768 181.016Z" fill="#BDD634"/>
<path opacity="0.6" d="M200.768 181.016L201.712 181.064L201.957 176.256L201.013 176.207L200.768 181.016Z" fill="white"/>
<path d="M225.228 152.658C224.802 153.819 224.408 154.921 224.045 155.963C223.488 157.548 222.991 159.003 222.556 160.342C221.178 164.322 220.167 168.419 219.537 172.582C219.244 174.622 219.095 176.588 218.945 178.791L199.905 177.24C199.137 164.613 199.477 157.677 199.83 154.202C200.211 150.51 200.816 150.374 200.816 150.374C200.816 150.374 205.066 149.979 208.779 150.006C211.642 150.105 214.495 150.391 217.32 150.863C219.994 151.279 222.637 151.879 225.228 152.658Z" fill="#BDD634"/>
<path d="M210.35 154.223C215.048 153.624 216.47 151.618 216.47 151.618C213.491 148.81 215.966 143.941 215.966 143.941L210.316 144.995C210.446 145.782 210.521 146.577 210.54 147.375C210.581 150.775 209.03 150.836 209.03 150.836C208.024 152.693 210.35 154.223 210.35 154.223Z" fill="#E4897B"/>
<path opacity="0.2" d="M210.302 144.995C210.432 145.782 210.507 146.577 210.527 147.375C213.247 146.743 215.967 143.941 215.967 143.941L210.302 144.995Z" fill="black"/>
<path d="M204.06 129.321C204.06 129.321 201.041 140.881 208.657 143.39C216.273 145.899 207.447 123.99 204.06 129.321Z" fill="#BDD634"/>
<path opacity="0.2" d="M204.06 129.321C204.06 129.321 201.041 140.881 208.657 143.39C216.273 145.899 207.447 123.99 204.06 129.321Z" fill="black"/>
<path d="M217.062 126.206C224.773 127.566 225.534 146.919 214.722 143.941C211.54 143.064 200.973 132.802 206.501 129.382C209.657 127.361 213.314 126.261 217.062 126.206Z" fill="#263238"/>
<path d="M211.009 129.491C206.208 129.722 204.787 132.367 204.678 137.325C204.535 143.526 206.113 147.851 212.049 146.239C220.114 144.057 218.972 129.103 211.009 129.491Z" fill="#E4897B"/>
<path d="M207.8 136.91C207.45 137.639 207.014 138.324 206.501 138.95C206.651 139.14 206.85 139.286 207.076 139.371C207.303 139.457 207.549 139.478 207.787 139.433L207.8 136.91Z" fill="#DE5753"/>
<path d="M210.683 136.372C210.683 136.767 210.914 137.052 211.179 137.052C211.444 137.052 211.642 136.719 211.635 136.325C211.628 135.93 211.404 135.611 211.138 135.645C210.873 135.679 210.669 135.978 210.683 136.372Z" fill="#263238"/>
<path d="M211.254 135.665L210.384 135.346C210.384 135.346 210.833 136.08 211.254 135.665Z" fill="#263238"/>
<path d="M205.76 136.413C205.76 136.808 205.991 137.093 206.257 137.093C206.522 137.093 206.726 136.767 206.712 136.372C206.699 135.978 206.481 135.658 206.223 135.692C205.964 135.726 205.76 136.019 205.76 136.413Z" fill="#263238"/>
<path d="M206.345 135.706L205.474 135.387C205.474 135.387 205.923 136.08 206.345 135.706Z" fill="#263238"/>
<path d="M212.689 133.924C212.654 133.925 212.62 133.917 212.588 133.903C212.557 133.889 212.528 133.869 212.505 133.843C212.252 133.615 211.95 133.447 211.623 133.352C211.296 133.257 210.951 133.236 210.615 133.292C210.584 133.298 210.552 133.298 210.522 133.291C210.491 133.285 210.462 133.272 210.436 133.255C210.41 133.237 210.388 133.214 210.371 133.188C210.354 133.162 210.342 133.132 210.336 133.102C210.33 133.071 210.331 133.039 210.337 133.009C210.344 132.978 210.356 132.949 210.374 132.923C210.391 132.897 210.414 132.875 210.44 132.858C210.466 132.841 210.496 132.829 210.527 132.823C210.942 132.747 211.37 132.768 211.777 132.886C212.183 133.004 212.556 133.216 212.866 133.503C212.888 133.525 212.906 133.552 212.919 133.581C212.931 133.61 212.937 133.641 212.937 133.673C212.937 133.705 212.931 133.736 212.919 133.765C212.906 133.794 212.888 133.821 212.866 133.843C212.844 133.869 212.817 133.89 212.787 133.904C212.756 133.918 212.723 133.925 212.689 133.924Z" fill="#263238"/>
<path d="M205.182 133.754C205.13 133.757 205.079 133.742 205.036 133.712C204.994 133.683 204.962 133.64 204.946 133.591C204.93 133.542 204.93 133.488 204.947 133.439C204.964 133.39 204.996 133.348 205.039 133.319C205.327 133.077 205.667 132.904 206.032 132.813C206.398 132.722 206.779 132.716 207.147 132.796C207.207 132.816 207.256 132.858 207.285 132.914C207.314 132.97 207.321 133.034 207.304 133.095C207.294 133.125 207.279 133.153 207.259 133.177C207.239 133.201 207.214 133.221 207.186 133.235C207.159 133.25 207.128 133.259 207.097 133.261C207.066 133.264 207.034 133.261 207.004 133.251C206.708 133.199 206.404 133.212 206.114 133.291C205.823 133.37 205.554 133.512 205.325 133.707C205.282 133.735 205.233 133.751 205.182 133.754Z" fill="#263238"/>
<path d="M216.64 137.324C216.64 137.324 214.206 133.489 214.403 130.429C214.403 130.429 204.706 127.029 204.699 136.678C204.699 136.678 203.339 128.151 211.594 127.566C219.85 126.982 220.387 139.045 216.3 142.846C216.3 142.88 218.15 139.725 216.64 137.324Z" fill="#263238"/>
<path d="M215.905 138.372C215.914 138.095 215.977 137.822 216.091 137.57C216.206 137.318 216.368 137.09 216.57 136.901C216.773 136.711 217.01 136.564 217.269 136.466C217.528 136.368 217.804 136.323 218.081 136.332C219.577 136.427 220.427 139.446 216.769 140.357C216.238 140.493 215.919 139.99 215.905 138.372Z" fill="#E4897B"/>
<path d="M217.061 126.206C217.061 126.206 210.207 124.636 205.467 128.423C200.728 132.211 213.552 132.748 213.552 132.748L210.458 130.966C210.458 130.966 214.396 132.503 216.204 132.089L217.061 126.206Z" fill="#263238"/>
<path d="M209.364 133.36C208.827 133.278 204.121 132.503 203.924 130.803C203.727 129.103 206.025 128.083 206.127 128.029C206.147 128.02 206.168 128.015 206.19 128.014C206.211 128.013 206.233 128.017 206.253 128.024C206.273 128.032 206.292 128.043 206.308 128.058C206.323 128.073 206.336 128.091 206.345 128.11C206.361 128.151 206.361 128.196 206.344 128.237C206.328 128.277 206.296 128.31 206.257 128.328C206.257 128.328 204.081 129.287 204.257 130.769C204.4 131.993 208.031 132.809 209.419 133.034C209.44 133.037 209.461 133.044 209.479 133.056C209.498 133.067 209.514 133.082 209.527 133.1C209.539 133.118 209.548 133.138 209.553 133.159C209.558 133.181 209.558 133.203 209.555 133.224C209.551 133.246 209.544 133.266 209.532 133.285C209.521 133.303 209.506 133.32 209.488 133.332C209.47 133.345 209.45 133.354 209.429 133.359C209.408 133.363 209.386 133.364 209.364 133.36Z" fill="#263238"/>
<path d="M207.582 140.425C207.874 140.953 208.129 141.5 208.344 142.064L208.656 141.996C210.057 141.69 210.615 141.085 210.798 140.507C210.918 140.055 210.882 139.576 210.696 139.147C209.912 139.723 209.012 140.122 208.058 140.317C207.8 140.391 207.582 140.425 207.582 140.425Z" fill="#263238"/>
<path d="M208.059 140.317L208.297 140.793C209.623 140.5 210.513 140.113 210.84 139.63C210.813 139.463 210.765 139.301 210.697 139.147C209.913 139.723 209.012 140.122 208.059 140.317Z" fill="white"/>
<path d="M208.657 141.996C210.058 141.69 210.615 141.085 210.799 140.507C210.263 140.642 209.757 140.873 209.303 141.187C209.009 141.383 208.783 141.666 208.657 141.996Z" fill="#DE5753"/>
<path d="M205.284 142.996C205.546 143.603 205.977 144.122 206.525 144.492C207.073 144.862 207.716 145.067 208.378 145.083C211.472 145.124 215.722 141.683 215.722 141.683L216.266 142.962C216.266 142.962 212.016 146.09 208.616 146.09C206.807 146.11 205.08 144.24 205.284 142.996Z" fill="#263238"/>
<path d="M209.765 146.001L209.364 144.995C208.839 144.815 208.293 144.701 207.739 144.655C207.409 144.642 207.08 144.707 206.78 144.845C206.819 145.141 206.944 145.419 207.14 145.644C207.336 145.869 207.594 146.031 207.882 146.11C208.51 146.218 209.154 146.181 209.765 146.001Z" fill="#263238"/>
<path opacity="0.5" d="M209.765 146.001L209.364 144.995C208.839 144.815 208.293 144.701 207.739 144.655C207.409 144.642 207.08 144.707 206.78 144.845C206.819 145.141 206.944 145.419 207.14 145.644C207.336 145.869 207.594 146.031 207.882 146.11C208.51 146.218 209.154 146.181 209.765 146.001Z" fill="white"/>
<path d="M223.753 139.48C221.951 143.084 218.408 145.546 215.953 143.417C213.498 141.289 215.151 131.748 215.151 131.748C209.84 129.518 204.06 130.824 204.06 130.824C203.937 127.152 208.058 122.732 216.694 124.704C217.985 124.958 219.21 125.473 220.294 126.218C221.378 126.963 222.298 127.921 222.998 129.035C223.14 129.255 223.272 129.482 223.392 129.715C223.643 130.195 223.852 130.696 224.018 131.211C224.211 131.788 224.357 132.379 224.453 132.979C224.875 135.167 224.631 137.432 223.753 139.48Z" fill="#BDD634"/>
<path d="M204.06 129.321C207.982 128.341 212.107 128.557 215.906 129.94C216.387 130.918 216.788 131.935 217.103 132.979C217.205 133.707 202.238 132.768 201.374 131.912C200.511 131.055 203.333 130.715 203.333 130.715L204.06 129.321Z" fill="#263238"/>
<path opacity="0.4" d="M222.556 134.21L222.855 135.346L215.905 140.602L221.073 135.162L219.36 132.224L222.998 129.049C223.14 129.269 223.272 129.496 223.392 129.729C223.643 130.209 223.852 130.709 224.018 131.225C224.211 131.801 224.357 132.393 224.453 132.993L222.556 134.21Z" fill="white"/>
<path opacity="0.4" d="M224.018 131.245L221.04 133.224L221.339 134.21L220.394 132.51L223.392 129.749C223.643 130.229 223.852 130.73 224.018 131.245Z" fill="white"/>
<path d="M195.56 156.602C195.568 156.67 195.563 156.738 195.543 156.803C195.523 156.867 195.489 156.927 195.444 156.977C195.398 157.028 195.343 157.068 195.281 157.094C195.219 157.121 195.151 157.134 195.084 157.133H189.807C189.66 157.13 189.52 157.074 189.41 156.977C189.301 156.88 189.229 156.747 189.208 156.602L188.032 146.198C188.022 146.127 188.026 146.055 188.044 145.985C188.063 145.915 188.095 145.85 188.14 145.794C188.184 145.737 188.24 145.69 188.303 145.655C188.367 145.621 188.436 145.6 188.508 145.593H193.785C193.937 145.612 194.079 145.683 194.186 145.793C194.294 145.903 194.361 146.046 194.376 146.198L195.56 156.602Z" fill="#263238"/>
<path opacity="0.5" d="M193.799 146.13L194.996 156.636C195.011 156.698 195.011 156.761 194.997 156.823C194.983 156.884 194.954 156.941 194.914 156.99C194.874 157.038 194.822 157.076 194.764 157.101C194.707 157.126 194.644 157.137 194.581 157.133H190.12C189.821 157.133 189.277 156.97 189.243 156.67L188.046 146.13C188.012 145.831 188.522 145.593 188.828 145.593H193.296C193.432 145.603 193.559 145.664 193.652 145.764C193.745 145.863 193.798 145.994 193.799 146.13Z" fill="white"/>
<path d="M187.188 162.899L188.943 157.704C188.7 156.617 188.583 155.506 188.596 154.393C188.718 153.196 191.914 152.353 192.084 152.625C192.254 152.897 193.322 156.392 192.934 157.303C192.547 158.214 190.656 158.547 190.656 158.547L189.562 163.525L187.188 162.899Z" fill="#E4897B"/>
<path d="M216.952 147.375C216.952 147.375 212.417 149.415 210.873 149.082C210.193 148.946 208.772 147.375 208.772 147.375L207.568 150.02C207.568 150.02 207.942 153.237 209.452 155.12C210.962 157.004 218.238 151.36 218.238 151.36L216.952 147.375Z" fill="#BDD634"/>
<path opacity="0.2" d="M207.8 151.128C207.8 151.128 207.698 155.208 209.561 156.317C211.424 157.425 216.728 152.482 216.728 152.482C216.728 152.482 209.677 158.37 207.8 151.128Z" fill="black"/>
<path d="M207.452 176.642H206.772C206.772 167.122 209.826 155.365 210.043 154.522L209.962 150.02H210.642L210.723 154.617V154.664C210.682 154.773 207.466 166.891 207.452 176.642Z" fill="#263238"/>
<path opacity="0.2" d="M222.556 160.343C221.178 164.322 220.167 168.419 219.536 172.583C208.078 170.794 204.182 158.806 204.066 158.418C204.291 158.581 215.307 166.503 220.114 158.173L222.556 160.343Z" fill="black"/>
<path d="M208.385 159.057L204.923 155.977C204.923 155.977 203.781 154.202 203.468 153.808C203.155 153.413 198.11 154.223 198.11 154.223C198.11 154.223 199.028 156.487 199.307 157.133C199.585 157.779 201.619 157.779 202.564 157.779H203.502L206.44 161.24L208.385 159.057Z" fill="#E4897B"/>
<path d="M225.228 152.659C227.316 154.522 223.868 172.039 217.571 170.339C211.275 168.639 204.651 160.682 204.651 160.682L206.236 156.915C206.236 156.915 214.457 163.26 216.252 163.321C218.047 163.382 218.972 161.696 220.108 158.173C221.243 154.651 225.228 152.659 225.228 152.659Z" fill="#BDD634"/>
</g>
<defs>
<clipPath id="clip0_81_477">
<rect width="300" height="300" fill="white"/>
</clipPath>
</defs>
</svg>
