<svg width="24" height="24" viewBox="0 0 24 24" fill="none" xmlns="http://www.w3.org/2000/svg">
<path d="M22.25 8.67594V19.8764C22.2494 20.473 22.0122 21.0449 21.5903 21.4668C21.1685 21.8886 20.5966 22.1258 20 22.1264H16.25C15.8522 22.1264 15.6289 22.1264 15.1289 22.1264C15 22.1264 15.0391 22.1264 14.8651 22.1264H14.625C14.1953 22.1264 13.7892 22.1264 13.616 22.1264C13.4428 22.1264 13.3859 22.1264 13.187 22.1264H12.132C11.9331 22.1264 11.9974 22.125 11.6224 22.1264C10.3702 22.1313 10.5082 22.125 10.1332 22.1264H9.5C9 22.1264 9.5 22.1264 9 22.1264C8.5 22.1264 8.39782 22.1264 8 22.1264H4.25C3.65345 22.1258 3.0815 21.8886 2.65967 21.4668C2.23784 21.0449 2.0006 20.473 2 19.8764V8.67594C2.00056 8.41692 2.06787 8.16241 2.19543 7.93698C2.32299 7.71155 2.5065 7.5228 2.72825 7.38894L11.3532 2.21394C11.5864 2.07399 11.8532 2.00006 12.1252 2.00006C12.3971 2.00006 12.664 2.07399 12.8971 2.21394L21.5221 7.38894C21.7438 7.52284 21.9272 7.71162 22.0547 7.93705C22.1822 8.16247 22.2495 8.41695 22.25 8.67594Z" fill="#BDD634"/>
<path d="M15.8606 9.125H8.26442C7.96223 9.125 7.67241 9.24353 7.45873 9.4545C7.24505 9.66548 7.125 9.95163 7.125 10.25V17.75C7.125 18.0484 7.24505 18.3345 7.45873 18.5455C7.67241 18.7565 7.96223 18.875 8.26442 18.875H15.8606C16.1628 18.875 16.4526 18.7565 16.6663 18.5455C16.88 18.3345 17 18.0484 17 17.75V10.25C17 9.95163 16.88 9.66548 16.6663 9.4545C16.4526 9.24353 16.1628 9.125 15.8606 9.125ZM9.02404 13.25H9.78365C9.88439 13.25 9.98099 13.2895 10.0522 13.3598C10.1234 13.4302 10.1635 13.5255 10.1635 13.625V14.375C10.1635 14.4745 10.1234 14.5698 10.0522 14.6402C9.98099 14.7105 9.88439 14.75 9.78365 14.75H9.02404C8.92331 14.75 8.8267 14.7105 8.75547 14.6402C8.68425 14.5698 8.64423 14.4745 8.64423 14.375V13.625C8.64423 13.5255 8.68425 13.4302 8.75547 13.3598C8.8267 13.2895 8.92331 13.25 9.02404 13.25ZM8.64423 12.125V11.375C8.64423 11.2755 8.68425 11.1802 8.75547 11.1098C8.8267 11.0395 8.92331 11 9.02404 11H9.78365C9.88439 11 9.98099 11.0395 10.0522 11.1098C10.1234 11.1802 10.1635 11.2755 10.1635 11.375V12.125C10.1635 12.2245 10.1234 12.3198 10.0522 12.3902C9.98099 12.4605 9.88439 12.5 9.78365 12.5H9.02404C8.92331 12.5 8.8267 12.4605 8.75547 12.3902C8.68425 12.3198 8.64423 12.2245 8.64423 12.125ZM9.02404 15.5H9.78365C9.88439 15.5 9.98099 15.5395 10.0522 15.6098C10.1234 15.6802 10.1635 15.7755 10.1635 15.875V16.625C10.1635 16.7245 10.1234 16.8198 10.0522 16.8902C9.98099 16.9605 9.88439 17 9.78365 17H9.02404C8.92331 17 8.8267 16.9605 8.75547 16.8902C8.68425 16.8198 8.64423 16.7245 8.64423 16.625V15.875C8.64423 15.7755 8.68425 15.6802 8.75547 15.6098C8.8267 15.5395 8.92331 15.5 9.02404 15.5ZM11.3029 15.875H15.101C15.2017 15.875 15.2983 15.9145 15.3695 15.9848C15.4408 16.0552 15.4808 16.1505 15.4808 16.25C15.4808 16.3495 15.4408 16.4448 15.3695 16.5152C15.2983 16.5855 15.2017 16.625 15.101 16.625H11.3029C11.2022 16.625 11.1055 16.5855 11.0343 16.5152C10.9631 16.4448 10.9231 16.3495 10.9231 16.25C10.9231 16.1505 10.9631 16.0552 11.0343 15.9848C11.1055 15.9145 11.2022 15.875 11.3029 15.875ZM10.9231 14C10.9231 13.9005 10.9631 13.8052 11.0343 13.7348C11.1055 13.6645 11.2022 13.625 11.3029 13.625H15.101C15.2017 13.625 15.2983 13.6645 15.3695 13.7348C15.4408 13.8052 15.4808 13.9005 15.4808 14C15.4808 14.0995 15.4408 14.1948 15.3695 14.2652C15.2983 14.3355 15.2017 14.375 15.101 14.375H11.3029C11.2022 14.375 11.1055 14.3355 11.0343 14.2652C10.9631 14.1948 10.9231 14.0995 10.9231 14ZM15.101 12.125H11.3029C11.2022 12.125 11.1055 12.0855 11.0343 12.0152C10.9631 11.9448 10.9231 11.8495 10.9231 11.75C10.9231 11.6505 10.9631 11.5552 11.0343 11.4848C11.1055 11.4145 11.2022 11.375 11.3029 11.375H15.101C15.2017 11.375 15.2983 11.4145 15.3695 11.4848C15.4408 11.5552 15.4808 11.6505 15.4808 11.75C15.4808 11.8495 15.4408 11.9448 15.3695 12.0152C15.2983 12.0855 15.2017 12.125 15.101 12.125Z" fill="white"/>
</svg>
