<svg width="13" height="13" viewBox="0 0 13 13" fill="none" xmlns="http://www.w3.org/2000/svg">
<path d="M6.5 1.52344C5.51573 1.52344 4.55356 1.81531 3.73517 2.36214C2.91678 2.90897 2.27892 3.6862 1.90226 4.59555C1.52559 5.5049 1.42704 6.50552 1.61906 7.47088C1.81108 8.43624 2.28506 9.32298 2.98104 10.019C3.67703 10.7149 4.56376 11.1889 5.52912 11.3809C6.49448 11.573 7.4951 11.4744 8.40445 11.0977C9.3138 10.7211 10.091 10.0832 10.6379 9.26483C11.1847 8.44644 11.4766 7.48427 11.4766 6.5C11.4751 5.18058 10.9503 3.91561 10.0174 2.98264C9.08439 2.04967 7.81942 1.52489 6.5 1.52344ZM4.00624 8.77663C3.91074 8.77663 3.81739 8.74831 3.73799 8.69525C3.65859 8.6422 3.59671 8.56679 3.56016 8.47857C3.52362 8.39034 3.51406 8.29326 3.53269 8.1996C3.55132 8.10594 3.5973 8.01991 3.66483 7.95239C3.73235 7.88486 3.81838 7.83888 3.91204 7.82025C4.0057 7.80162 4.10278 7.81118 4.19101 7.84772C4.27923 7.88427 4.35464 7.94615 4.40769 8.02555C4.46075 8.10495 4.48906 8.1983 4.48906 8.2938C4.48896 8.42182 4.43805 8.54457 4.34753 8.63509C4.257 8.72561 4.13426 8.77652 4.00624 8.77663ZM4.00624 6.98283C3.91074 6.98283 3.81739 6.95451 3.73799 6.90146C3.65859 6.8484 3.59671 6.773 3.56016 6.68477C3.52362 6.59655 3.51406 6.49946 3.53269 6.40581C3.55132 6.31215 3.5973 6.22611 3.66483 6.15859C3.73235 6.09106 3.81838 6.04508 3.91204 6.02645C4.0057 6.00782 4.10278 6.01738 4.19101 6.05393C4.27923 6.09047 4.35464 6.15235 4.40769 6.23176C4.46075 6.31116 4.48906 6.40451 4.48906 6.5C4.48896 6.62802 4.43805 6.75077 4.34753 6.84129C4.257 6.93182 4.13426 6.98272 4.00624 6.98283ZM4.00624 5.18903C3.91074 5.18903 3.81739 5.16071 3.73799 5.10766C3.65859 5.05461 3.59671 4.9792 3.56016 4.89097C3.52362 4.80275 3.51406 4.70567 3.53269 4.61201C3.55132 4.51835 3.5973 4.43232 3.66483 4.36479C3.73235 4.29727 3.81838 4.25128 3.91204 4.23265C4.0057 4.21402 4.10278 4.22358 4.19101 4.26013C4.27923 4.29667 4.35464 4.35856 4.40769 4.43796C4.46075 4.51736 4.48906 4.61071 4.48906 4.7062C4.4889 4.83421 4.43798 4.95692 4.34747 5.04744C4.25696 5.13795 4.13424 5.18887 4.00624 5.18903ZM9.00433 8.76606H5.42933C5.30408 8.76606 5.18396 8.71631 5.09539 8.62774C5.00682 8.53917 4.95706 8.41905 4.95706 8.2938C4.95706 8.16854 5.00682 8.04842 5.09539 7.95986C5.18396 7.87129 5.30408 7.82153 5.42933 7.82153H9.00433C9.12958 7.82153 9.24971 7.87129 9.33827 7.95986C9.42684 8.04842 9.4766 8.16854 9.4766 8.2938C9.4766 8.41905 9.42684 8.53917 9.33827 8.62774C9.24971 8.71631 9.12958 8.76606 9.00433 8.76606ZM9.00433 6.97227H5.42933C5.36731 6.97227 5.3059 6.96005 5.2486 6.93632C5.1913 6.91258 5.13924 6.8778 5.09539 6.83394C5.05153 6.79009 5.01675 6.73803 4.99301 6.68073C4.96928 6.62343 4.95706 6.56202 4.95706 6.5C4.95706 6.43798 4.96928 6.37657 4.99301 6.31927C5.01675 6.26197 5.05153 6.20991 5.09539 6.16606C5.13924 6.1222 5.1913 6.08742 5.2486 6.06368C5.3059 6.03995 5.36731 6.02773 5.42933 6.02773H9.00433C9.06635 6.02773 9.12776 6.03995 9.18506 6.06368C9.24236 6.08742 9.29442 6.1222 9.33827 6.16606C9.38213 6.20991 9.41691 6.26197 9.44065 6.31927C9.46438 6.37657 9.4766 6.43798 9.4766 6.5C9.4766 6.56202 9.46438 6.62343 9.44065 6.68073C9.41691 6.73803 9.38213 6.79009 9.33827 6.83394C9.29442 6.8778 9.24236 6.91258 9.18506 6.93632C9.12776 6.96005 9.06635 6.97227 9.00433 6.97227ZM9.00433 5.17847H5.42933C5.30408 5.17847 5.18396 5.12871 5.09539 5.04015C5.00682 4.95158 4.95706 4.83146 4.95706 4.7062C4.95706 4.58095 5.00682 4.46083 5.09539 4.37226C5.18396 4.28369 5.30408 4.23394 5.42933 4.23394H9.00433C9.12958 4.23394 9.24971 4.28369 9.33827 4.37226C9.42684 4.46083 9.4766 4.58095 9.4766 4.7062C9.4766 4.83146 9.42684 4.95158 9.33827 5.04015C9.24971 5.12871 9.12958 5.17847 9.00433 5.17847Z" fill="#BDD634"/>
</svg>
