<svg width="24" height="24" viewBox="0 0 24 24" fill="none" xmlns="http://www.w3.org/2000/svg">
<path d="M17.3488 12C17.3491 13.2968 16.8772 14.5493 16.0212 15.5235C15.1652 16.4976 13.9837 17.1266 12.6976 17.293C12.2355 17.3674 11.7644 17.3674 11.3023 17.293C10.0168 17.1257 8.83617 16.4963 7.98074 15.5223C7.12531 14.5483 6.65356 13.2963 6.65356 12C6.65356 10.7037 7.12531 9.4517 7.98074 8.47771C8.83617 7.50372 10.0168 6.87431 11.3023 6.70699C11.7644 6.63258 12.2355 6.63258 12.6976 6.70699C13.9837 6.87339 15.1652 7.50244 16.0212 8.47657C16.8772 9.4507 17.3491 10.7032 17.3488 12Z" fill="#DEFFFD"/>
<path d="M11.9999 6.65116V17.3488C11.7663 17.3487 11.533 17.3301 11.3023 17.293C10.0168 17.1257 8.83617 16.4963 7.98074 15.5223C7.12531 14.5483 6.65356 13.2963 6.65356 12C6.65356 10.7037 7.12531 9.45168 7.98074 8.47769C8.83617 7.5037 10.0168 6.8743 11.3023 6.70698C11.533 6.66992 11.7663 6.65125 11.9999 6.65116ZM11.9999 5.25581C11.8149 5.25581 11.6375 5.18231 11.5066 5.05147C11.3758 4.92063 11.3023 4.74317 11.3023 4.55814V2.69767C11.3023 2.51264 11.3758 2.33518 11.5066 2.20434C11.6375 2.0735 11.8149 2 11.9999 2C12.185 2 12.3624 2.0735 12.4933 2.20434C12.6241 2.33518 12.6976 2.51264 12.6976 2.69767V4.55814C12.6976 4.74317 12.6241 4.92063 12.4933 5.05147C12.3624 5.18231 12.185 5.25581 11.9999 5.25581ZM17.2623 7.43535C17.1244 7.43523 16.9896 7.39424 16.875 7.31757C16.7604 7.2409 16.671 7.13199 16.6183 7.00458C16.5655 6.87717 16.5517 6.73699 16.5786 6.60173C16.6055 6.46648 16.6718 6.34222 16.7693 6.24465L18.0846 4.93023C18.2175 4.81142 18.3909 4.74799 18.5691 4.75298C18.7473 4.75797 18.9168 4.83099 19.0429 4.95705C19.169 5.08311 19.242 5.25265 19.247 5.43086C19.252 5.60907 19.1885 5.78243 19.0697 5.91535L17.7562 7.2307C17.6915 7.29578 17.6145 7.34738 17.5297 7.3825C17.445 7.41763 17.354 7.43559 17.2623 7.43535ZM21.3023 12.6977H19.4418C19.2568 12.6977 19.0793 12.6242 18.9485 12.4933C18.8176 12.3625 18.7441 12.185 18.7441 12C18.7441 11.815 18.8176 11.6375 18.9485 11.5067C19.0793 11.3758 19.2568 11.3023 19.4418 11.3023H21.3023C21.4873 11.3023 21.6648 11.3758 21.7956 11.5067C21.9264 11.6375 21.9999 11.815 21.9999 12C21.9999 12.185 21.9264 12.3625 21.7956 12.4933C21.6648 12.6242 21.4873 12.6977 21.3023 12.6977ZM18.5776 19.2753C18.4861 19.2754 18.3954 19.2575 18.3108 19.2225C18.2262 19.1876 18.1494 19.1363 18.0846 19.0716L16.7693 17.7563C16.7044 17.6915 16.653 17.6145 16.618 17.5299C16.5829 17.4452 16.5648 17.3544 16.5648 17.2628C16.5648 17.1711 16.5829 17.0804 16.618 16.9957C16.653 16.911 16.7044 16.8341 16.7693 16.7693C16.8341 16.7045 16.911 16.6531 16.9957 16.618C17.0803 16.5829 17.1711 16.5649 17.2627 16.5649C17.3544 16.5649 17.4451 16.5829 17.5298 16.618C17.6145 16.6531 17.6914 16.7045 17.7562 16.7693L19.0697 18.0847C19.1672 18.1823 19.2336 18.3066 19.2604 18.442C19.2873 18.5773 19.2734 18.7176 19.2205 18.845C19.1676 18.9725 19.0782 19.0814 18.9634 19.158C18.8486 19.2346 18.7137 19.2754 18.5758 19.2753H18.5776ZM11.9999 22C11.8149 22 11.6375 21.9265 11.5066 21.7957C11.3758 21.6648 11.3023 21.4874 11.3023 21.3023V19.4419C11.3023 19.2568 11.3758 19.0794 11.5066 18.9485C11.6375 18.8177 11.8149 18.7442 11.9999 18.7442C12.185 18.7442 12.3624 18.8177 12.4933 18.9485C12.6241 19.0794 12.6976 19.2568 12.6976 19.4419V21.3023C12.6976 21.4874 12.6241 21.6648 12.4933 21.7957C12.3624 21.9265 12.185 22 11.9999 22Z" fill="#42EAF5"/>
<path d="M5.42233 19.2753C5.28435 19.2754 5.14945 19.2345 5.03469 19.1579C4.91993 19.0813 4.83046 18.9724 4.77759 18.845C4.72472 18.7175 4.71082 18.5773 4.73766 18.4419C4.7645 18.3066 4.83087 18.1823 4.92837 18.0846L6.24465 16.7693C6.37629 16.6423 6.55256 16.572 6.73549 16.5737C6.91842 16.5754 7.09337 16.6488 7.22266 16.7782C7.35196 16.9077 7.42525 17.0827 7.42675 17.2656C7.42825 17.4485 7.35785 17.6247 7.2307 17.7563L5.91535 19.0697C5.85079 19.1348 5.774 19.1865 5.68938 19.2218C5.60476 19.2571 5.514 19.2753 5.42233 19.2753ZM4.55814 12.6977H2.69767C2.51264 12.6977 2.33518 12.6241 2.20434 12.4933C2.0735 12.3625 2 12.185 2 12C2 11.8149 2.0735 11.6375 2.20434 11.5066C2.33518 11.3758 2.51264 11.3023 2.69767 11.3023H4.55814C4.74317 11.3023 4.92063 11.3758 5.05147 11.5066C5.18231 11.6375 5.25581 11.8149 5.25581 12C5.25581 12.185 5.18231 12.3625 5.05147 12.4933C4.92063 12.6241 4.74317 12.6977 4.55814 12.6977ZM6.73767 7.43533C6.64602 7.43566 6.55523 7.41773 6.47058 7.38259C6.38593 7.34746 6.30913 7.29581 6.24465 7.23068L4.93023 5.91533C4.81142 5.78241 4.74799 5.60905 4.75298 5.43084C4.75797 5.25263 4.83099 5.08309 4.95705 4.95703C5.08311 4.83097 5.25265 4.75795 5.43086 4.75296C5.60907 4.74797 5.78243 4.8114 5.91535 4.93021L7.2307 6.24463C7.32815 6.3422 7.39449 6.46646 7.42136 6.60171C7.44823 6.73697 7.43442 6.87715 7.38166 7.00456C7.32891 7.13197 7.23958 7.24088 7.12496 7.31755C7.01034 7.39422 6.87557 7.43521 6.73767 7.43533ZM12.6977 6.70695V17.293C12.2355 17.3674 11.7645 17.3674 11.3023 17.293V6.70695C11.7645 6.63254 12.2355 6.63254 12.6977 6.70695Z" fill="#DEFFFD"/>
<path d="M11.9999 14.093H7.55339C7.36835 14.093 7.1909 14.0195 7.06006 13.8887C6.92922 13.7578 6.85571 13.5804 6.85571 13.3954C6.85571 13.2103 6.92922 13.0329 7.06006 12.902C7.1909 12.7712 7.36835 12.6977 7.55339 12.6977H11.9999C12.1849 12.6977 12.3624 12.7712 12.4932 12.902C12.6241 13.0329 12.6976 13.2103 12.6976 13.3954C12.6976 13.5804 12.6241 13.7578 12.4932 13.8887C12.3624 14.0195 12.1849 14.093 11.9999 14.093ZM11.9999 11.3023H7.55339C7.36835 11.3023 7.1909 11.2288 7.06006 11.098C6.92922 10.9671 6.85571 10.7897 6.85571 10.6047C6.85571 10.4196 6.92922 10.2422 7.06006 10.1113C7.1909 9.98049 7.36835 9.90698 7.55339 9.90698H11.9999C12.1849 9.90698 12.3624 9.98049 12.4932 10.1113C12.6241 10.2422 12.6976 10.4196 12.6976 10.6047C12.6976 10.7897 12.6241 10.9671 12.4932 11.098C12.3624 11.2288 12.1849 11.3023 11.9999 11.3023Z" fill="#DEFFFD"/>
<path d="M12 15.9535C10.9514 15.9535 9.94584 15.537 9.20442 14.7956C8.463 14.0541 8.04647 13.0486 8.04647 12C8.04647 10.9515 8.463 9.94591 9.20442 9.20448C9.94584 8.46306 10.9514 8.04653 12 8.04653V6.65118C10.5814 6.65118 9.22086 7.21472 8.21776 8.21782C7.21466 9.22092 6.65112 10.5814 6.65112 12C6.65112 13.4186 7.21466 14.7791 8.21776 15.7822C9.22086 16.7853 10.5814 17.3489 12 17.3489V15.9535Z" fill="#DEFFFD"/>
<path d="M11.9999 17.3489C11.8149 17.3489 11.6374 17.2754 11.5066 17.1445C11.3758 17.0137 11.3022 16.8362 11.3022 16.6512V7.34886C11.3022 7.16382 11.3758 6.98637 11.5066 6.85553C11.6374 6.72469 11.8149 6.65118 11.9999 6.65118C12.185 6.65118 12.3624 6.72469 12.4933 6.85553C12.6241 6.98637 12.6976 7.16382 12.6976 7.34886V16.6512C12.6976 16.8362 12.6241 17.0137 12.4933 17.1445C12.3624 17.2754 12.185 17.3489 11.9999 17.3489Z" fill="#BDD634"/>
<path d="M11.9999 14.093H7.55339C7.36835 14.093 7.1909 14.0195 7.06006 13.8887C6.92922 13.7578 6.85571 13.5804 6.85571 13.3954C6.85571 13.2103 6.92922 13.0329 7.06006 12.902C7.1909 12.7712 7.36835 12.6977 7.55339 12.6977H11.9999C12.1849 12.6977 12.3624 12.7712 12.4932 12.902C12.6241 13.0329 12.6976 13.2103 12.6976 13.3954C12.6976 13.5804 12.6241 13.7578 12.4932 13.8887C12.3624 14.0195 12.1849 14.093 11.9999 14.093ZM11.9999 11.3023H7.55339C7.36835 11.3023 7.1909 11.2288 7.06006 11.098C6.92922 10.9671 6.85571 10.7897 6.85571 10.6047C6.85571 10.4196 6.92922 10.2422 7.06006 10.1113C7.1909 9.98049 7.36835 9.90698 7.55339 9.90698H11.9999C12.1849 9.90698 12.3624 9.98049 12.4932 10.1113C12.6241 10.2422 12.6976 10.4196 12.6976 10.6047C12.6976 10.7897 12.6241 10.9671 12.4932 11.098C12.3624 11.2288 12.1849 11.3023 11.9999 11.3023Z" fill="#BDD634"/>
<path d="M12 17.3488C10.9421 17.3488 9.90796 17.0351 9.02835 16.4474C8.14873 15.8597 7.46316 15.0243 7.05832 14.0469C6.65348 13.0695 6.54755 11.9941 6.75394 10.9565C6.96033 9.91892 7.46975 8.96585 8.2178 8.2178C8.96585 7.46975 9.91892 6.96033 10.9565 6.75394C11.9941 6.54755 13.0695 6.65348 14.0469 7.05832C15.0243 7.46316 15.8597 8.14873 16.4474 9.02835C17.0351 9.90796 17.3488 10.9421 17.3488 12C17.3471 13.4181 16.783 14.7776 15.7803 15.7803C14.7776 16.783 13.4181 17.3471 12 17.3488ZM12 8.04651C11.2181 8.04651 10.4537 8.27838 9.80356 8.71279C9.15341 9.14721 8.64668 9.76466 8.34745 10.4871C8.04822 11.2095 7.96993 12.0044 8.12248 12.7713C8.27502 13.5382 8.65156 14.2426 9.20446 14.7955C9.75737 15.3484 10.4618 15.725 11.2287 15.8775C11.9956 16.0301 12.7905 15.9518 13.5129 15.6525C14.2353 15.3533 14.8528 14.8466 15.2872 14.1964C15.7216 13.5463 15.9535 12.7819 15.9535 12C15.9523 10.9518 15.5353 9.94698 14.7942 9.20582C14.053 8.46467 13.0482 8.04774 12 8.04651ZM12 5.25581C11.815 5.25581 11.6375 5.18231 11.5067 5.05147C11.3758 4.92063 11.3023 4.74317 11.3023 4.55814V2.69767C11.3023 2.51264 11.3758 2.33518 11.5067 2.20434C11.6375 2.0735 11.815 2 12 2C12.185 2 12.3625 2.0735 12.4933 2.20434C12.6242 2.33518 12.6977 2.51264 12.6977 2.69767V4.55814C12.6977 4.74317 12.6242 4.92063 12.4933 5.05147C12.3625 5.18231 12.185 5.25581 12 5.25581ZM17.2623 7.43535C17.1244 7.43523 16.9897 7.39424 16.875 7.31757C16.7604 7.2409 16.6711 7.13199 16.6183 7.00458C16.5656 6.87717 16.5518 6.73699 16.5786 6.60173C16.6055 6.46648 16.6719 6.34222 16.7693 6.24465L18.0847 4.93023C18.2176 4.81142 18.3909 4.74799 18.5691 4.75298C18.7473 4.75797 18.9169 4.83099 19.0429 4.95705C19.169 5.08311 19.242 5.25265 19.247 5.43086C19.252 5.60907 19.1886 5.78243 19.0698 5.91535L17.7563 7.23163C17.6914 7.29642 17.6144 7.34776 17.5296 7.38272C17.4448 7.41768 17.354 7.43556 17.2623 7.43535ZM21.3023 12.6977H19.4419C19.2568 12.6977 19.0794 12.6242 18.9485 12.4933C18.8177 12.3625 18.7442 12.185 18.7442 12C18.7442 11.815 18.8177 11.6375 18.9485 11.5067C19.0794 11.3758 19.2568 11.3023 19.4419 11.3023H21.3023C21.4874 11.3023 21.6648 11.3758 21.7957 11.5067C21.9265 11.6375 22 11.815 22 12C22 12.185 21.9265 12.3625 21.7957 12.4933C21.6648 12.6242 21.4874 12.6977 21.3023 12.6977ZM18.5777 19.2753C18.4861 19.2754 18.3955 19.2575 18.3109 19.2225C18.2263 19.1876 18.1494 19.1363 18.0847 19.0716L16.7693 17.7553C16.7045 17.6905 16.6531 17.6136 16.618 17.5289C16.5829 17.4443 16.5649 17.3535 16.5649 17.2619C16.5649 17.1702 16.5829 17.0795 16.618 16.9948C16.6531 16.9101 16.7045 16.8332 16.7693 16.7684C16.8341 16.7036 16.911 16.6522 16.9957 16.6171C17.0804 16.582 17.1711 16.564 17.2628 16.564C17.3544 16.564 17.4452 16.582 17.5299 16.6171C17.6145 16.6522 17.6915 16.7036 17.7563 16.7684L19.0698 18.0847C19.1673 18.1823 19.2336 18.3066 19.2605 18.442C19.2873 18.5773 19.2734 18.7176 19.2206 18.845C19.1677 18.9725 19.0782 19.0814 18.9634 19.158C18.8487 19.2346 18.7138 19.2754 18.5758 19.2753H18.5777ZM12 22C11.815 22 11.6375 21.9265 11.5067 21.7957C11.3758 21.6648 11.3023 21.4874 11.3023 21.3023V19.4419C11.3023 19.2568 11.3758 19.0794 11.5067 18.9485C11.6375 18.8177 11.815 18.7442 12 18.7442C12.185 18.7442 12.3625 18.8177 12.4933 18.9485C12.6242 19.0794 12.6977 19.2568 12.6977 19.4419V21.3023C12.6977 21.4874 12.6242 21.6648 12.4933 21.7957C12.3625 21.9265 12.185 22 12 22ZM5.42233 19.2753C5.28435 19.2754 5.14945 19.2346 5.03469 19.158C4.91993 19.0814 4.83046 18.9725 4.77759 18.845C4.72472 18.7176 4.71082 18.5773 4.73766 18.442C4.7645 18.3066 4.83087 18.1823 4.92837 18.0847L6.24465 16.7684C6.37629 16.6413 6.55256 16.5711 6.73549 16.5728C6.91842 16.5745 7.09337 16.6479 7.22266 16.7773C7.35196 16.9067 7.42525 17.0818 7.42675 17.2647C7.42825 17.4476 7.35785 17.6238 7.2307 17.7553L5.91535 19.0698C5.85079 19.1349 5.774 19.1865 5.68938 19.2218C5.60476 19.2571 5.514 19.2753 5.42233 19.2753ZM4.55814 12.6977H2.69767C2.51264 12.6977 2.33518 12.6242 2.20434 12.4933C2.0735 12.3625 2 12.185 2 12C2 11.815 2.0735 11.6375 2.20434 11.5067C2.33518 11.3758 2.51264 11.3023 2.69767 11.3023H4.55814C4.74317 11.3023 4.92063 11.3758 5.05147 11.5067C5.18231 11.6375 5.25581 11.815 5.25581 12C5.25581 12.185 5.18231 12.3625 5.05147 12.4933C4.92063 12.6242 4.74317 12.6977 4.55814 12.6977ZM6.73767 7.43535C6.64612 7.43559 6.55542 7.41772 6.47081 7.38276C6.38619 7.34779 6.30933 7.29643 6.24465 7.23163L4.93023 5.91535C4.81142 5.78243 4.74799 5.60907 4.75298 5.43086C4.75797 5.25265 4.83099 5.08311 4.95705 4.95705C5.08311 4.83099 5.25265 4.75797 5.43086 4.75298C5.60907 4.74799 5.78243 4.81142 5.91535 4.93023L7.2307 6.24465C7.32815 6.34222 7.39449 6.46648 7.42136 6.60173C7.44823 6.73699 7.43442 6.87717 7.38166 7.00458C7.32891 7.13199 7.23958 7.2409 7.12496 7.31757C7.01034 7.39424 6.87557 7.43523 6.73767 7.43535Z" fill="#BDD634"/>
</svg>
