<svg width="24" height="24" viewBox="0 0 24 24" fill="none" xmlns="http://www.w3.org/2000/svg">
<path d="M19.8125 12.7689V9.8125C19.8125 5.50469 16.3078 2 12 2C7.69219 2 4.1875 5.50469 4.1875 9.8125V12.7689C2.92102 13.168 2 14.3534 2 15.75V18.875C2 20.5981 3.40188 22 5.125 22C6.84812 22 8.25 20.5981 8.25 18.875V15.75C8.25 14.3534 7.32898 13.168 6.0625 12.7689V9.8125C6.0625 6.53855 8.72605 3.875 12 3.875C15.2739 3.875 17.9375 6.53855 17.9375 9.8125V12.7689C16.671 13.168 15.75 14.3534 15.75 15.75V18.875C15.75 20.5981 17.1519 22 18.875 22C20.5981 22 22 20.5981 22 18.875V15.75C22 14.3534 21.079 13.168 19.8125 12.7689Z" fill="#BDD634"/>
<path d="M15.5355 12.0222L15.0009 11.4875C15.1316 11.2545 15.2345 11.007 15.3076 10.75H16.0625C16.5803 10.75 17 10.3303 17 9.8125C17 9.29473 16.5803 8.875 16.0625 8.875H15.3075C15.2345 8.61802 15.1316 8.37049 15.0008 8.1375L15.5355 7.60281C15.9016 7.23668 15.9016 6.64309 15.5355 6.27699C15.1694 5.9109 14.5758 5.9109 14.2097 6.27699L13.675 6.81168C13.442 6.68094 13.1945 6.578 12.9375 6.50496V5.75C12.9375 5.23223 12.5178 4.8125 12 4.8125C11.4822 4.8125 11.0625 5.23223 11.0625 5.75V6.50496C10.8055 6.578 10.558 6.68094 10.325 6.81168L9.79031 6.27699C9.42418 5.9109 8.83062 5.9109 8.46449 6.27699C8.09836 6.64312 8.09836 7.23672 8.46449 7.60281L8.99918 8.1375C8.86846 8.3705 8.76552 8.61802 8.69246 8.875H7.9375C7.41973 8.875 7 9.29473 7 9.8125C7 10.3303 7.41973 10.75 7.9375 10.75H8.69246C8.7655 11.007 8.86844 11.2545 8.99918 11.4875L8.46449 12.0222C8.09836 12.3883 8.09836 12.9819 8.46449 13.348C8.64758 13.5311 8.8875 13.6226 9.12742 13.6226C9.36734 13.6226 9.60727 13.5311 9.79035 13.348L10.325 12.8133C10.558 12.9441 10.8056 13.047 11.0625 13.12V13.875C11.0625 14.3928 11.4823 14.8125 12 14.8125C12.5178 14.8125 12.9375 14.3928 12.9375 13.875V13.12C13.1945 13.047 13.4421 12.9441 13.675 12.8133L14.2097 13.348C14.3928 13.5311 14.6327 13.6226 14.8727 13.6226C15.1126 13.6226 15.3525 13.5311 15.5356 13.348C15.9016 12.9819 15.9016 12.3883 15.5355 12.0222ZM12 11.375C11.1384 11.375 10.4375 10.6741 10.4375 9.8125C10.4375 8.95094 11.1384 8.25 12 8.25C12.8616 8.25 13.5625 8.95094 13.5625 9.8125C13.5625 10.6741 12.8616 11.375 12 11.375Z" fill="#BDD634"/>
</svg>
