<svg width="50" height="50" viewBox="0 0 50 50" fill="none" xmlns="http://www.w3.org/2000/svg">
<g clip-path="url(#clip0_80_253)">
<path d="M33.3333 14.2292L31.5 16.0625C30.6875 16.875 29.375 16.875 28.5625 16.0625C27.75 15.25 27.75 13.9375 28.5625 13.125L33.9583 7.72919C34.7708 6.91669 36.0833 6.91669 36.8958 7.72919L42.2917 13.125C43.1042 13.9375 43.1042 15.25 42.2917 16.0625C41.4792 16.875 40.1667 16.875 39.3542 16.0625L37.5 14.2292V27.0834C37.5 29.375 35.625 31.25 33.3333 31.25H16.6667V41.6667C16.6667 42.8125 15.7292 43.75 14.5833 43.75C13.4375 43.75 12.5 42.8125 12.5 41.6667V31.25C12.5 28.9584 14.375 27.0834 16.6667 27.0834H33.3333V14.2292Z" fill="#BDD634"/>
</g>
<defs>
<clipPath id="clip0_80_253">
<rect width="50" height="50" fill="white"/>
</clipPath>
</defs>
</svg>
