<svg width="13" height="13" viewBox="0 0 13 13" fill="none" xmlns="http://www.w3.org/2000/svg">
<path d="M7.11456 1.98307C7.11315 1.71911 7.19014 1.46067 7.33577 1.24052C7.48139 1.02036 7.6891 0.848393 7.93256 0.746406C8.17603 0.64442 8.44429 0.617006 8.70335 0.66764C8.96241 0.718274 9.2006 0.844676 9.38775 1.03083C9.5749 1.21698 9.70257 1.4545 9.75458 1.71328C9.8066 1.97207 9.78061 2.24047 9.67993 2.48448C9.57924 2.72848 9.40838 2.9371 9.189 3.0839C8.96963 3.2307 8.71161 3.30906 8.44765 3.30907C8.0955 3.30845 7.75786 3.16878 7.50819 2.92044C7.25852 2.6721 7.11705 2.3352 7.11456 1.98307ZM11.2273 7.02707C11.1758 7.13177 11.096 7.22 10.997 7.2818C10.8981 7.34361 10.7838 7.37654 10.6671 7.37688C10.5739 7.37542 10.4824 7.35193 10.4 7.30834L8.87074 6.55434C8.76322 6.50208 8.67298 6.42004 8.61074 6.31797L8.03638 5.34416L7.23983 7.19016L8.35547 8.91088C8.43605 9.03463 8.47876 9.17921 8.47837 9.32688V11.5818C8.47854 11.6938 8.45431 11.8044 8.40737 11.906C8.36043 12.0077 8.2919 12.0979 8.20656 12.1703C8.06598 12.2878 7.88865 12.3522 7.70547 12.3523C7.66225 12.3569 7.61868 12.3569 7.57547 12.3523C7.39389 12.3159 7.23084 12.2169 7.11468 12.0727C6.99851 11.9284 6.93658 11.7481 6.93965 11.5629V9.55852L6.04147 8.17343C5.93464 8.18522 5.82684 8.18522 5.72001 8.17343L5.20001 9.27252C5.14977 9.37621 5.07711 9.46744 4.98728 9.53961L2.97819 11.1942C2.83947 11.3056 2.66689 11.3665 2.48892 11.3667C2.37345 11.3656 2.25971 11.3384 2.15618 11.2873C2.05265 11.2361 1.96198 11.1623 1.89092 11.0712C1.82645 10.9936 1.77818 10.9038 1.74896 10.8072C1.71973 10.7106 1.71013 10.6091 1.72074 10.5087C1.74153 10.3042 1.8427 10.1163 2.00201 9.98634L3.89292 8.4547L4.5831 7.00107C4.55002 6.75642 4.5835 6.50738 4.68001 6.28016L5.58056 4.1907L4.97783 4.42707L4.1411 6.31797C4.07229 6.46618 3.94788 6.58134 3.7948 6.63852C3.64173 6.6957 3.4723 6.6903 3.32317 6.62351C3.17404 6.55671 3.0572 6.43388 2.99795 6.28159C2.9387 6.12931 2.94179 5.95982 3.00656 5.80979L3.95201 3.68252C3.98578 3.60205 4.03669 3.52992 4.10119 3.47114C4.16568 3.41235 4.24222 3.36834 4.32547 3.34216L5.94692 2.73943C6.10626 2.68084 6.27635 2.65727 6.44562 2.67032C6.61489 2.68338 6.77935 2.73274 6.92783 2.81507C6.95008 2.82786 6.96938 2.84521 6.98445 2.86598C6.99952 2.88676 7.01003 2.91049 7.01528 2.93561C7.06063 3.16444 7.18384 3.3705 7.36397 3.51873C7.54409 3.66697 7.77001 3.74823 8.00328 3.7487C8.09604 3.74961 8.18842 3.73687 8.27747 3.71088C8.3049 3.70262 8.33395 3.70132 8.36201 3.7071C8.39008 3.71288 8.41626 3.72555 8.43819 3.74397C8.59976 3.87646 8.7366 4.03651 8.84237 4.2167L9.59874 5.51197L10.9673 6.18561C11.1126 6.26342 11.2215 6.3954 11.2701 6.55293C11.3188 6.71045 11.3034 6.88082 11.2273 7.02707Z" fill="#BDD634"/>
</svg>
